<svg xmlns="http://www.w3.org/2000/svg" xmlns:xlink="http://www.w3.org/1999/xlink" width="500" zoomAndPan="magnify" viewBox="0 0 375 374.999991" height="500" preserveAspectRatio="xMidYMid meet" version="1.0"><defs><g/><clipPath id="1ae98e1e47"><path d="M 46.484375 140.457031 L 140.566406 140.457031 L 140.566406 234.542969 L 46.484375 234.542969 Z M 46.484375 140.457031 " clip-rule="nonzero"/></clipPath><clipPath id="053421fe92"><path d="M 93.523438 140.457031 C 67.542969 140.457031 46.484375 161.519531 46.484375 187.5 C 46.484375 213.480469 67.542969 234.542969 93.523438 234.542969 C 119.503906 234.542969 140.566406 213.480469 140.566406 187.5 C 140.566406 161.519531 119.503906 140.457031 93.523438 140.457031 Z M 93.523438 140.457031 " clip-rule="nonzero"/></clipPath><clipPath id="b2ac49aaab"><path d="M 0.484375 0.457031 L 94.566406 0.457031 L 94.566406 94.542969 L 0.484375 94.542969 Z M 0.484375 0.457031 " clip-rule="nonzero"/></clipPath><clipPath id="0c9c562a09"><path d="M 47.523438 0.457031 C 21.542969 0.457031 0.484375 21.519531 0.484375 47.5 C 0.484375 73.480469 21.542969 94.542969 47.523438 94.542969 C 73.503906 94.542969 94.566406 73.480469 94.566406 47.5 C 94.566406 21.519531 73.503906 0.457031 47.523438 0.457031 Z M 47.523438 0.457031 " clip-rule="nonzero"/></clipPath><clipPath id="ec4929013e"><rect x="0" width="95" y="0" height="95"/></clipPath><clipPath id="d829cc748e"><path d="M 46.484375 140.457031 L 140.234375 140.457031 L 140.234375 234.207031 L 46.484375 234.207031 Z M 46.484375 140.457031 " clip-rule="nonzero"/></clipPath><clipPath id="67987791b7"><path d="M 93.523438 140.457031 C 67.542969 140.457031 46.484375 161.519531 46.484375 187.496094 C 46.484375 213.476562 67.542969 234.535156 93.523438 234.535156 C 119.5 234.535156 140.5625 213.476562 140.5625 187.496094 C 140.5625 161.519531 119.5 140.457031 93.523438 140.457031 Z M 93.523438 140.457031 " clip-rule="nonzero"/></clipPath><clipPath id="7bf5af3399"><path d="M 58.242188 152.21875 L 128.804688 152.21875 L 128.804688 222.78125 L 58.242188 222.78125 Z M 58.242188 152.21875 " clip-rule="nonzero"/></clipPath><clipPath id="4d0d17c20f"><path d="M 93.523438 152.21875 C 74.039062 152.21875 58.242188 168.015625 58.242188 187.5 C 58.242188 206.984375 74.039062 222.78125 93.523438 222.78125 C 113.007812 222.78125 128.804688 206.984375 128.804688 187.5 C 128.804688 168.015625 113.007812 152.21875 93.523438 152.21875 Z M 93.523438 152.21875 " clip-rule="nonzero"/></clipPath><clipPath id="aaf27e0d72"><path d="M 0.242188 0.21875 L 70.804688 0.21875 L 70.804688 70.78125 L 0.242188 70.78125 Z M 0.242188 0.21875 " clip-rule="nonzero"/></clipPath><clipPath id="d8b2ca2e86"><path d="M 35.523438 0.21875 C 16.039062 0.21875 0.242188 16.015625 0.242188 35.5 C 0.242188 54.984375 16.039062 70.78125 35.523438 70.78125 C 55.007812 70.78125 70.804688 54.984375 70.804688 35.5 C 70.804688 16.015625 55.007812 0.21875 35.523438 0.21875 Z M 35.523438 0.21875 " clip-rule="nonzero"/></clipPath><clipPath id="5a281686bf"><rect x="0" width="71" y="0" height="71"/></clipPath><clipPath id="033d0aa945"><path d="M 58.242188 152.21875 L 128.742188 152.21875 L 128.742188 222.71875 L 58.242188 222.71875 Z M 58.242188 152.21875 " clip-rule="nonzero"/></clipPath><clipPath id="eb394e3840"><path d="M 93.523438 152.21875 C 74.039062 152.21875 58.242188 168.015625 58.242188 187.5 C 58.242188 206.984375 74.039062 222.777344 93.523438 222.777344 C 113.007812 222.777344 128.800781 206.984375 128.800781 187.5 C 128.800781 168.015625 113.007812 152.21875 93.523438 152.21875 Z M 93.523438 152.21875 " clip-rule="nonzero"/></clipPath><clipPath id="4afc93c19d"><path d="M 69.140625 138.605469 L 117.84375 138.605469 L 117.84375 182.34375 L 69.140625 182.34375 Z M 69.140625 138.605469 " clip-rule="nonzero"/></clipPath><clipPath id="2b7b9bf596"><path d="M 89.050781 179.691406 L 69.984375 146.414062 C 69.0625 144.800781 69.066406 142.816406 70 141.207031 C 70.933594 139.597656 72.652344 138.605469 74.511719 138.605469 L 112.535156 138.605469 C 114.398438 138.605469 116.117188 139.597656 117.050781 141.207031 C 117.980469 142.816406 117.988281 144.800781 117.0625 146.414062 L 98 179.691406 C 97.078125 181.292969 95.371094 182.285156 93.523438 182.285156 C 91.675781 182.285156 89.96875 181.292969 89.050781 179.691406 Z M 89.050781 179.691406 " clip-rule="nonzero"/></clipPath><clipPath id="5c66d5d774"><path d="M 0.140625 0.605469 L 48.84375 0.605469 L 48.84375 44.34375 L 0.140625 44.34375 Z M 0.140625 0.605469 " clip-rule="nonzero"/></clipPath><clipPath id="3daf3bb029"><path d="M 20.050781 41.691406 L 0.984375 8.414062 C 0.0625 6.800781 0.0664062 4.816406 1 3.207031 C 1.933594 1.597656 3.652344 0.605469 5.511719 0.605469 L 43.535156 0.605469 C 45.398438 0.605469 47.117188 1.597656 48.050781 3.207031 C 48.980469 4.816406 48.988281 6.800781 48.0625 8.414062 L 29 41.691406 C 28.078125 43.292969 26.371094 44.285156 24.523438 44.285156 C 22.675781 44.285156 20.96875 43.292969 20.050781 41.691406 Z M 20.050781 41.691406 " clip-rule="nonzero"/></clipPath><clipPath id="d95d313a86"><rect x="0" width="49" y="0" height="45"/></clipPath><clipPath id="7ae076f506"><path d="M 97.152344 187.5 L 145.855469 187.5 L 145.855469 231.238281 L 97.152344 231.238281 Z M 97.152344 187.5 " clip-rule="nonzero"/></clipPath><clipPath id="ea0ca5cdd3"><path d="M 117.0625 228.585938 L 98 195.308594 C 97.074219 193.695312 97.078125 191.710938 98.011719 190.101562 C 98.945312 188.492188 100.664062 187.5 102.523438 187.5 L 140.546875 187.5 C 142.410156 187.5 144.128906 188.492188 145.0625 190.101562 C 145.992188 191.710938 146 193.695312 145.074219 195.308594 L 126.011719 228.585938 C 125.089844 230.1875 123.382812 231.175781 121.535156 231.175781 C 119.6875 231.175781 117.980469 230.1875 117.0625 228.585938 Z M 117.0625 228.585938 " clip-rule="nonzero"/></clipPath><clipPath id="e50f50073d"><path d="M 0.152344 0.5 L 48.855469 0.5 L 48.855469 44.238281 L 0.152344 44.238281 Z M 0.152344 0.5 " clip-rule="nonzero"/></clipPath><clipPath id="0aa2abccfe"><path d="M 20.0625 41.585938 L 1 8.308594 C 0.0742188 6.695312 0.078125 4.710938 1.011719 3.101562 C 1.945312 1.492188 3.664062 0.5 5.523438 0.5 L 43.546875 0.5 C 45.410156 0.5 47.128906 1.492188 48.0625 3.101562 C 48.992188 4.710938 49 6.695312 48.074219 8.308594 L 29.011719 41.585938 C 28.089844 43.1875 26.382812 44.175781 24.535156 44.175781 C 22.6875 44.175781 20.980469 43.1875 20.0625 41.585938 Z M 20.0625 41.585938 " clip-rule="nonzero"/></clipPath><clipPath id="05f69b201e"><rect x="0" width="49" y="0" height="45"/></clipPath><clipPath id="b36d254a67"><path d="M 41.128906 187.5 L 89.832031 187.5 L 89.832031 231.238281 L 41.128906 231.238281 Z M 41.128906 187.5 " clip-rule="nonzero"/></clipPath><clipPath id="0cd35b58c9"><path d="M 61.039062 228.585938 L 41.972656 195.308594 C 41.050781 193.695312 41.054688 191.710938 41.988281 190.101562 C 42.921875 188.492188 44.640625 187.5 46.5 187.5 L 84.523438 187.5 C 86.382812 187.5 88.105469 188.492188 89.035156 190.101562 C 89.96875 191.710938 89.976562 193.695312 89.050781 195.308594 L 69.984375 228.585938 C 69.066406 230.1875 67.359375 231.175781 65.511719 231.175781 C 63.664062 231.175781 61.957031 230.1875 61.039062 228.585938 Z M 61.039062 228.585938 " clip-rule="nonzero"/></clipPath><clipPath id="dc7e8838d1"><path d="M 0.128906 0.5 L 48.832031 0.5 L 48.832031 44.238281 L 0.128906 44.238281 Z M 0.128906 0.5 " clip-rule="nonzero"/></clipPath><clipPath id="91b1ad5586"><path d="M 20.039062 41.585938 L 0.972656 8.308594 C 0.0507812 6.695312 0.0546875 4.710938 0.988281 3.101562 C 1.921875 1.492188 3.640625 0.5 5.5 0.5 L 43.523438 0.5 C 45.382812 0.5 47.105469 1.492188 48.035156 3.101562 C 48.96875 4.710938 48.976562 6.695312 48.050781 8.308594 L 28.984375 41.585938 C 28.066406 43.1875 26.359375 44.175781 24.511719 44.175781 C 22.664062 44.175781 20.957031 43.1875 20.039062 41.585938 Z M 20.039062 41.585938 " clip-rule="nonzero"/></clipPath><clipPath id="ba6cae6a38"><rect x="0" width="49" y="0" height="45"/></clipPath><clipPath id="a976aaed8e"><path d="M 56.972656 193.414062 L 74.222656 193.414062 L 74.222656 214.414062 L 56.972656 214.414062 Z M 56.972656 193.414062 " clip-rule="nonzero"/></clipPath><clipPath id="13f1e99a33"><path d="M 112.824219 203 L 130.074219 203 L 130.074219 214 L 112.824219 214 Z M 112.824219 203 " clip-rule="nonzero"/></clipPath><clipPath id="922f6c1db7"><path d="M 116 193.414062 L 127 193.414062 L 127 205 L 116 205 Z M 116 193.414062 " clip-rule="nonzero"/></clipPath><clipPath id="bcd31c8836"><path d="M 82 143.136719 L 105.054688 143.136719 L 105.054688 161.136719 L 82 161.136719 Z M 82 143.136719 " clip-rule="nonzero"/></clipPath><clipPath id="50f6a9b036"><path d="M 81.34375 175.320312 L 105.703125 175.320312 L 105.703125 199.679688 L 81.34375 199.679688 Z M 81.34375 175.320312 " clip-rule="nonzero"/></clipPath><clipPath id="73e3393eb1"><path d="M 93.523438 175.320312 C 86.796875 175.320312 81.34375 180.773438 81.34375 187.5 C 81.34375 194.226562 86.796875 199.679688 93.523438 199.679688 C 100.25 199.679688 105.703125 194.226562 105.703125 187.5 C 105.703125 180.773438 100.25 175.320312 93.523438 175.320312 Z M 93.523438 175.320312 " clip-rule="nonzero"/></clipPath><clipPath id="455b3ba2e5"><path d="M 0.34375 0.320312 L 24.703125 0.320312 L 24.703125 24.679688 L 0.34375 24.679688 Z M 0.34375 0.320312 " clip-rule="nonzero"/></clipPath><clipPath id="042a5d97bf"><path d="M 12.523438 0.320312 C 5.796875 0.320312 0.34375 5.773438 0.34375 12.5 C 0.34375 19.226562 5.796875 24.679688 12.523438 24.679688 C 19.25 24.679688 24.703125 19.226562 24.703125 12.5 C 24.703125 5.773438 19.25 0.320312 12.523438 0.320312 Z M 12.523438 0.320312 " clip-rule="nonzero"/></clipPath><radialGradient gradientTransform="matrix(1, 0, 0, 1, 0.344648, 0.320574)" gradientUnits="userSpaceOnUse" r="17.224248" cx="12.179405" id="acec0ef1c0" cy="12.179405" fx="12.179405" fy="12.179405"><stop stop-opacity="1" stop-color="rgb(100%, 86.941528%, 34.881592%)" offset="0"/><stop stop-opacity="1" stop-color="rgb(100%, 86.647034%, 34.83429%)" offset="0.0078125"/><stop stop-opacity="1" stop-color="rgb(100%, 86.29303%, 34.779358%)" offset="0.0195312"/><stop stop-opacity="1" stop-color="rgb(100%, 85.939026%, 34.724426%)" offset="0.03125"/><stop stop-opacity="1" stop-color="rgb(100%, 85.585022%, 34.669495%)" offset="0.0429688"/><stop stop-opacity="1" stop-color="rgb(100%, 85.231018%, 34.614563%)" offset="0.0546875"/><stop stop-opacity="1" stop-color="rgb(100%, 84.877014%, 34.559631%)" offset="0.0664062"/><stop stop-opacity="1" stop-color="rgb(100%, 84.52301%, 34.5047%)" offset="0.078125"/><stop stop-opacity="1" stop-color="rgb(100%, 84.169006%, 34.449768%)" offset="0.0898438"/><stop stop-opacity="1" stop-color="rgb(100%, 83.815002%, 34.394836%)" offset="0.101562"/><stop stop-opacity="1" stop-color="rgb(100%, 83.460999%, 34.339905%)" offset="0.113281"/><stop stop-opacity="1" stop-color="rgb(100%, 83.106995%, 34.283447%)" offset="0.125"/><stop stop-opacity="1" stop-color="rgb(100%, 82.752991%, 34.228516%)" offset="0.136719"/><stop stop-opacity="1" stop-color="rgb(100%, 82.398987%, 34.173584%)" offset="0.148438"/><stop stop-opacity="1" stop-color="rgb(100%, 82.044983%, 34.118652%)" offset="0.160156"/><stop stop-opacity="1" stop-color="rgb(100%, 81.690979%, 34.063721%)" offset="0.171875"/><stop stop-opacity="1" stop-color="rgb(100%, 81.336975%, 34.008789%)" offset="0.183594"/><stop stop-opacity="1" stop-color="rgb(100%, 80.984497%, 33.953857%)" offset="0.195312"/><stop stop-opacity="1" stop-color="rgb(100%, 80.630493%, 33.898926%)" offset="0.207031"/><stop stop-opacity="1" stop-color="rgb(100%, 80.276489%, 33.843994%)" offset="0.21875"/><stop stop-opacity="1" stop-color="rgb(100%, 79.922485%, 33.789062%)" offset="0.230469"/><stop stop-opacity="1" stop-color="rgb(100%, 79.568481%, 33.732605%)" offset="0.242188"/><stop stop-opacity="1" stop-color="rgb(100%, 79.272461%, 33.686829%)" offset="0.253906"/><stop stop-opacity="1" stop-color="rgb(100%, 79.037476%, 33.650208%)" offset="0.261719"/><stop stop-opacity="1" stop-color="rgb(100%, 78.800964%, 33.613586%)" offset="0.269531"/><stop stop-opacity="1" stop-color="rgb(100%, 78.564453%, 33.576965%)" offset="0.277344"/><stop stop-opacity="1" stop-color="rgb(100%, 78.329468%, 33.540344%)" offset="0.285156"/><stop stop-opacity="1" stop-color="rgb(100%, 78.092957%, 33.503723%)" offset="0.292969"/><stop stop-opacity="1" stop-color="rgb(100%, 77.856445%, 33.467102%)" offset="0.300781"/><stop stop-opacity="1" stop-color="rgb(100%, 77.62146%, 33.430481%)" offset="0.308594"/><stop stop-opacity="1" stop-color="rgb(100%, 77.384949%, 33.39386%)" offset="0.316406"/><stop stop-opacity="1" stop-color="rgb(100%, 77.149963%, 33.357239%)" offset="0.324219"/><stop stop-opacity="1" stop-color="rgb(100%, 76.913452%, 33.320618%)" offset="0.332031"/><stop stop-opacity="1" stop-color="rgb(100%, 76.676941%, 33.283997%)" offset="0.339844"/><stop stop-opacity="1" stop-color="rgb(100%, 76.441956%, 33.247375%)" offset="0.347656"/><stop stop-opacity="1" stop-color="rgb(100%, 76.205444%, 33.210754%)" offset="0.355469"/><stop stop-opacity="1" stop-color="rgb(100%, 75.970459%, 33.174133%)" offset="0.363281"/><stop stop-opacity="1" stop-color="rgb(100%, 75.733948%, 33.135986%)" offset="0.371094"/><stop stop-opacity="1" stop-color="rgb(100%, 75.497437%, 33.099365%)" offset="0.378906"/><stop stop-opacity="1" stop-color="rgb(100%, 75.262451%, 33.062744%)" offset="0.386719"/><stop stop-opacity="1" stop-color="rgb(100%, 75.02594%, 33.026123%)" offset="0.394531"/><stop stop-opacity="1" stop-color="rgb(100%, 74.789429%, 32.989502%)" offset="0.402344"/><stop stop-opacity="1" stop-color="rgb(100%, 74.554443%, 32.952881%)" offset="0.410156"/><stop stop-opacity="1" stop-color="rgb(100%, 74.317932%, 32.91626%)" offset="0.417969"/><stop stop-opacity="1" stop-color="rgb(100%, 74.082947%, 32.879639%)" offset="0.425781"/><stop stop-opacity="1" stop-color="rgb(100%, 73.846436%, 32.843018%)" offset="0.433594"/><stop stop-opacity="1" stop-color="rgb(100%, 73.609924%, 32.806396%)" offset="0.441406"/><stop stop-opacity="1" stop-color="rgb(100%, 73.374939%, 32.769775%)" offset="0.449219"/><stop stop-opacity="1" stop-color="rgb(100%, 73.138428%, 32.733154%)" offset="0.457031"/><stop stop-opacity="1" stop-color="rgb(100%, 72.901917%, 32.696533%)" offset="0.464844"/><stop stop-opacity="1" stop-color="rgb(100%, 72.666931%, 32.659912%)" offset="0.472656"/><stop stop-opacity="1" stop-color="rgb(100%, 72.43042%, 32.623291%)" offset="0.480469"/><stop stop-opacity="1" stop-color="rgb(100%, 72.195435%, 32.58667%)" offset="0.488281"/><stop stop-opacity="1" stop-color="rgb(100%, 71.958923%, 32.548523%)" offset="0.496094"/><stop stop-opacity="1" stop-color="rgb(100%, 71.664429%, 32.502747%)" offset="0.503906"/><stop stop-opacity="1" stop-color="rgb(100%, 71.310425%, 32.447815%)" offset="0.515625"/><stop stop-opacity="1" stop-color="rgb(100%, 70.956421%, 32.392883%)" offset="0.527344"/><stop stop-opacity="1" stop-color="rgb(100%, 70.602417%, 32.337952%)" offset="0.539062"/><stop stop-opacity="1" stop-color="rgb(100%, 70.248413%, 32.28302%)" offset="0.550781"/><stop stop-opacity="1" stop-color="rgb(100%, 69.894409%, 32.228088%)" offset="0.5625"/><stop stop-opacity="1" stop-color="rgb(100%, 69.540405%, 32.173157%)" offset="0.574219"/><stop stop-opacity="1" stop-color="rgb(100%, 69.186401%, 32.118225%)" offset="0.585938"/><stop stop-opacity="1" stop-color="rgb(100%, 68.832397%, 32.063293%)" offset="0.597656"/><stop stop-opacity="1" stop-color="rgb(100%, 68.478394%, 32.006836%)" offset="0.609375"/><stop stop-opacity="1" stop-color="rgb(100%, 68.125916%, 31.951904%)" offset="0.621094"/><stop stop-opacity="1" stop-color="rgb(100%, 67.829895%, 31.906128%)" offset="0.632812"/><stop stop-opacity="1" stop-color="rgb(100%, 67.593384%, 31.869507%)" offset="0.640625"/><stop stop-opacity="1" stop-color="rgb(100%, 67.358398%, 31.832886%)" offset="0.648438"/><stop stop-opacity="1" stop-color="rgb(100%, 67.121887%, 31.796265%)" offset="0.65625"/><stop stop-opacity="1" stop-color="rgb(100%, 66.885376%, 31.759644%)" offset="0.664062"/><stop stop-opacity="1" stop-color="rgb(100%, 66.650391%, 31.723022%)" offset="0.671875"/><stop stop-opacity="1" stop-color="rgb(100%, 66.413879%, 31.686401%)" offset="0.679688"/><stop stop-opacity="1" stop-color="rgb(100%, 66.178894%, 31.64978%)" offset="0.6875"/><stop stop-opacity="1" stop-color="rgb(100%, 65.942383%, 31.613159%)" offset="0.695312"/><stop stop-opacity="1" stop-color="rgb(100%, 65.705872%, 31.576538%)" offset="0.703125"/><stop stop-opacity="1" stop-color="rgb(100%, 65.470886%, 31.539917%)" offset="0.710938"/><stop stop-opacity="1" stop-color="rgb(100%, 65.234375%, 31.503296%)" offset="0.71875"/><stop stop-opacity="1" stop-color="rgb(100%, 64.997864%, 31.466675%)" offset="0.726562"/><stop stop-opacity="1" stop-color="rgb(100%, 64.762878%, 31.428528%)" offset="0.734375"/><stop stop-opacity="1" stop-color="rgb(100%, 64.526367%, 31.391907%)" offset="0.742188"/><stop stop-opacity="1" stop-color="rgb(100%, 64.291382%, 31.355286%)" offset="0.75"/><stop stop-opacity="1" stop-color="rgb(100%, 63.996887%, 31.309509%)" offset="0.757812"/><stop stop-opacity="1" stop-color="rgb(100%, 63.642883%, 31.254578%)" offset="0.769531"/><stop stop-opacity="1" stop-color="rgb(100%, 63.288879%, 31.199646%)" offset="0.78125"/><stop stop-opacity="1" stop-color="rgb(100%, 62.934875%, 31.144714%)" offset="0.792969"/><stop stop-opacity="1" stop-color="rgb(100%, 62.580872%, 31.089783%)" offset="0.804688"/><stop stop-opacity="1" stop-color="rgb(100%, 62.284851%, 31.044006%)" offset="0.816406"/><stop stop-opacity="1" stop-color="rgb(100%, 62.049866%, 31.007385%)" offset="0.824219"/><stop stop-opacity="1" stop-color="rgb(100%, 61.813354%, 30.970764%)" offset="0.832031"/><stop stop-opacity="1" stop-color="rgb(100%, 61.576843%, 30.934143%)" offset="0.839844"/><stop stop-opacity="1" stop-color="rgb(100%, 61.341858%, 30.897522%)" offset="0.847656"/><stop stop-opacity="1" stop-color="rgb(100%, 61.105347%, 30.859375%)" offset="0.855469"/><stop stop-opacity="1" stop-color="rgb(100%, 60.870361%, 30.822754%)" offset="0.863281"/><stop stop-opacity="1" stop-color="rgb(100%, 60.63385%, 30.786133%)" offset="0.871094"/><stop stop-opacity="1" stop-color="rgb(100%, 60.339355%, 30.740356%)" offset="0.878906"/><stop stop-opacity="1" stop-color="rgb(100%, 59.985352%, 30.685425%)" offset="0.890625"/><stop stop-opacity="1" stop-color="rgb(100%, 59.631348%, 30.630493%)" offset="0.902344"/><stop stop-opacity="1" stop-color="rgb(100%, 59.336853%, 30.584717%)" offset="0.914062"/><stop stop-opacity="1" stop-color="rgb(100%, 59.100342%, 30.548096%)" offset="0.921875"/><stop stop-opacity="1" stop-color="rgb(100%, 58.863831%, 30.511475%)" offset="0.929688"/><stop stop-opacity="1" stop-color="rgb(100%, 58.628845%, 30.474854%)" offset="0.9375"/><stop stop-opacity="1" stop-color="rgb(100%, 58.334351%, 30.429077%)" offset="0.945312"/><stop stop-opacity="1" stop-color="rgb(100%, 58.03833%, 30.383301%)" offset="0.957031"/><stop stop-opacity="1" stop-color="rgb(100%, 57.801819%, 30.34668%)" offset="0.964844"/><stop stop-opacity="1" stop-color="rgb(100%, 57.507324%, 30.300903%)" offset="0.972656"/><stop stop-opacity="1" stop-color="rgb(100%, 57.21283%, 30.253601%)" offset="0.984375"/><stop stop-opacity="1" stop-color="rgb(100%, 56.976318%, 30.21698%)" offset="0.992188"/><stop stop-opacity="1" stop-color="rgb(100%, 56.858826%, 30.198669%)" offset="1"/></radialGradient><clipPath id="3149b79d4b"><rect x="0" width="25" y="0" height="25"/></clipPath></defs><g fill="#ffffff" fill-opacity="1"><g transform="translate(161.144525, 194.999987)"><g><path d="M 1.9375 0 L 1.9375 -16.09375 L 5.03125 -16.09375 L 10.765625 -7.75 L 16.46875 -16.09375 L 19.546875 -16.09375 L 19.546875 0 L 15.921875 0 L 15.921875 -9.6875 L 12 -3.984375 L 9.46875 -3.984375 L 5.5625 -9.703125 L 5.5625 0 Z M 1.9375 0 "/></g></g></g><g fill="#ffffff" fill-opacity="1"><g transform="translate(182.619293, 194.999987)"><g><path d="M 1.9375 0 L 1.9375 -16.09375 L 5.59375 -16.09375 L 5.59375 -3.421875 L 12.625 -3.421875 L 12.625 0 Z M 1.9375 0 "/></g></g></g><g fill="#ffffff" fill-opacity="1"><g transform="translate(195.86283, 194.999987)"><g><path d="M 1.9375 0 L 1.9375 -16.09375 L 5.03125 -16.09375 L 10.765625 -7.75 L 16.46875 -16.09375 L 19.546875 -16.09375 L 19.546875 0 L 15.921875 0 L 15.921875 -9.6875 L 12 -3.984375 L 9.46875 -3.984375 L 5.5625 -9.703125 L 5.5625 0 Z M 1.9375 0 "/></g></g></g><g fill="#ffffff" fill-opacity="1"><g transform="translate(222.740777, 194.999987)"><g><path d="M 1.9375 0 L 1.9375 -16.09375 L 8.296875 -16.09375 C 10.003906 -16.09375 11.492188 -15.753906 12.765625 -15.078125 C 14.035156 -14.410156 15.023438 -13.46875 15.734375 -12.25 C 16.441406 -11.039062 16.796875 -9.640625 16.796875 -8.046875 C 16.796875 -6.441406 16.441406 -5.035156 15.734375 -3.828125 C 15.023438 -2.628906 14.035156 -1.691406 12.765625 -1.015625 C 11.492188 -0.335938 10.003906 0 8.296875 0 Z M 5.59375 -3.359375 L 8.234375 -3.359375 C 9.179688 -3.359375 10.015625 -3.550781 10.734375 -3.9375 C 11.460938 -4.332031 12.03125 -4.878906 12.4375 -5.578125 C 12.84375 -6.285156 13.046875 -7.109375 13.046875 -8.046875 C 13.046875 -8.992188 12.84375 -9.816406 12.4375 -10.515625 C 12.03125 -11.210938 11.460938 -11.753906 10.734375 -12.140625 C 10.003906 -12.535156 9.15625 -12.734375 8.1875 -12.734375 L 5.59375 -12.734375 Z M 5.59375 -3.359375 "/></g></g></g><g fill="#ffffff" fill-opacity="1"><g transform="translate(240.214852, 194.999987)"><g><path d="M 5.765625 0.234375 C 4.347656 0.234375 3.222656 -0.0976562 2.390625 -0.765625 C 1.566406 -1.429688 1.15625 -2.347656 1.15625 -3.515625 C 1.15625 -4.640625 1.523438 -5.535156 2.265625 -6.203125 C 3.003906 -6.867188 4.003906 -7.203125 5.265625 -7.203125 L 9.640625 -7.203125 L 9.640625 -7.75 C 9.640625 -8.34375 9.421875 -8.820312 8.984375 -9.1875 C 8.554688 -9.550781 8 -9.734375 7.3125 -9.734375 C 6.75 -9.734375 6.265625 -9.601562 5.859375 -9.34375 C 5.460938 -9.082031 5.210938 -8.734375 5.109375 -8.296875 L 1.75 -8.296875 C 1.957031 -9.617188 2.546875 -10.628906 3.515625 -11.328125 C 4.492188 -12.035156 5.753906 -12.390625 7.296875 -12.390625 C 9.097656 -12.390625 10.507812 -11.929688 11.53125 -11.015625 C 12.550781 -10.109375 13.0625 -8.859375 13.0625 -7.265625 L 13.0625 0 L 10.46875 0 L 10.078125 -1.40625 C 9.015625 -0.3125 7.578125 0.234375 5.765625 0.234375 Z M 4.59375 -3.65625 C 4.59375 -3.238281 4.773438 -2.90625 5.140625 -2.65625 C 5.503906 -2.40625 5.984375 -2.28125 6.578125 -2.28125 C 7.453125 -2.28125 8.175781 -2.53125 8.75 -3.03125 C 9.320312 -3.539062 9.625 -4.203125 9.65625 -5.015625 L 6.34375 -5.015625 C 5.820312 -5.015625 5.398438 -4.890625 5.078125 -4.640625 C 4.753906 -4.398438 4.59375 -4.070312 4.59375 -3.65625 Z M 4.59375 -3.65625 "/></g></g></g><g fill="#ffffff" fill-opacity="1"><g transform="translate(254.44701, 194.999987)"><g><path d="M 7.5625 0 C 6.03125 0 4.851562 -0.394531 4.03125 -1.1875 C 3.21875 -1.976562 2.8125 -3.109375 2.8125 -4.578125 L 2.8125 -9.21875 L 0.453125 -9.21875 L 0.453125 -12.078125 L 1.546875 -12.078125 C 2.203125 -12.078125 2.648438 -12.179688 2.890625 -12.390625 C 3.128906 -12.609375 3.289062 -13.023438 3.375 -13.640625 L 3.59375 -15.203125 L 6.296875 -15.203125 L 6.296875 -12.078125 L 9.609375 -12.078125 L 9.609375 -9.21875 L 6.296875 -9.21875 L 6.296875 -5.109375 C 6.296875 -3.722656 6.972656 -3.03125 8.328125 -3.03125 L 9.78125 -3.03125 L 9.78125 0 Z M 7.5625 0 "/></g></g></g><g fill="#ffffff" fill-opacity="1"><g transform="translate(264.816478, 194.999987)"><g><path d="M 5.765625 0.234375 C 4.347656 0.234375 3.222656 -0.0976562 2.390625 -0.765625 C 1.566406 -1.429688 1.15625 -2.347656 1.15625 -3.515625 C 1.15625 -4.640625 1.523438 -5.535156 2.265625 -6.203125 C 3.003906 -6.867188 4.003906 -7.203125 5.265625 -7.203125 L 9.640625 -7.203125 L 9.640625 -7.75 C 9.640625 -8.34375 9.421875 -8.820312 8.984375 -9.1875 C 8.554688 -9.550781 8 -9.734375 7.3125 -9.734375 C 6.75 -9.734375 6.265625 -9.601562 5.859375 -9.34375 C 5.460938 -9.082031 5.210938 -8.734375 5.109375 -8.296875 L 1.75 -8.296875 C 1.957031 -9.617188 2.546875 -10.628906 3.515625 -11.328125 C 4.492188 -12.035156 5.753906 -12.390625 7.296875 -12.390625 C 9.097656 -12.390625 10.507812 -11.929688 11.53125 -11.015625 C 12.550781 -10.109375 13.0625 -8.859375 13.0625 -7.265625 L 13.0625 0 L 10.46875 0 L 10.078125 -1.40625 C 9.015625 -0.3125 7.578125 0.234375 5.765625 0.234375 Z M 4.59375 -3.65625 C 4.59375 -3.238281 4.773438 -2.90625 5.140625 -2.65625 C 5.503906 -2.40625 5.984375 -2.28125 6.578125 -2.28125 C 7.453125 -2.28125 8.175781 -2.53125 8.75 -3.03125 C 9.320312 -3.539062 9.625 -4.203125 9.65625 -5.015625 L 6.34375 -5.015625 C 5.820312 -5.015625 5.398438 -4.890625 5.078125 -4.640625 C 4.753906 -4.398438 4.59375 -4.070312 4.59375 -3.65625 Z M 4.59375 -3.65625 "/></g></g></g><g fill="#ffffff" fill-opacity="1"><g transform="translate(279.39356, 194.999987)"><g><path d="M 9.0625 0.328125 C 8.1875 0.328125 7.378906 0.175781 6.640625 -0.125 C 5.910156 -0.425781 5.273438 -0.84375 4.734375 -1.375 L 4.34375 0 L 1.75 0 L 1.75 -17.015625 L 5.25 -17.015625 L 5.25 -11.125 C 5.75 -11.53125 6.320312 -11.84375 6.96875 -12.0625 C 7.613281 -12.28125 8.3125 -12.390625 9.0625 -12.390625 C 10.269531 -12.390625 11.332031 -12.117188 12.25 -11.578125 C 13.175781 -11.035156 13.898438 -10.285156 14.421875 -9.328125 C 14.953125 -8.378906 15.21875 -7.285156 15.21875 -6.046875 C 15.21875 -4.804688 14.953125 -3.707031 14.421875 -2.75 C 13.898438 -1.789062 13.175781 -1.035156 12.25 -0.484375 C 11.332031 0.0546875 10.269531 0.328125 9.0625 0.328125 Z M 5.109375 -6.046875 C 5.109375 -5.066406 5.414062 -4.257812 6.03125 -3.625 C 6.65625 -3 7.457031 -2.6875 8.4375 -2.6875 C 9.4375 -2.6875 10.242188 -3 10.859375 -3.625 C 11.472656 -4.257812 11.78125 -5.066406 11.78125 -6.046875 C 11.78125 -7.023438 11.472656 -7.828125 10.859375 -8.453125 C 10.242188 -9.085938 9.4375 -9.40625 8.4375 -9.40625 C 7.457031 -9.40625 6.65625 -9.085938 6.03125 -8.453125 C 5.414062 -7.828125 5.109375 -7.023438 5.109375 -6.046875 Z M 5.109375 -6.046875 "/></g></g></g><g fill="#ffffff" fill-opacity="1"><g transform="translate(295.396153, 194.999987)"><g><path d="M 5.765625 0.234375 C 4.347656 0.234375 3.222656 -0.0976562 2.390625 -0.765625 C 1.566406 -1.429688 1.15625 -2.347656 1.15625 -3.515625 C 1.15625 -4.640625 1.523438 -5.535156 2.265625 -6.203125 C 3.003906 -6.867188 4.003906 -7.203125 5.265625 -7.203125 L 9.640625 -7.203125 L 9.640625 -7.75 C 9.640625 -8.34375 9.421875 -8.820312 8.984375 -9.1875 C 8.554688 -9.550781 8 -9.734375 7.3125 -9.734375 C 6.75 -9.734375 6.265625 -9.601562 5.859375 -9.34375 C 5.460938 -9.082031 5.210938 -8.734375 5.109375 -8.296875 L 1.75 -8.296875 C 1.957031 -9.617188 2.546875 -10.628906 3.515625 -11.328125 C 4.492188 -12.035156 5.753906 -12.390625 7.296875 -12.390625 C 9.097656 -12.390625 10.507812 -11.929688 11.53125 -11.015625 C 12.550781 -10.109375 13.0625 -8.859375 13.0625 -7.265625 L 13.0625 0 L 10.46875 0 L 10.078125 -1.40625 C 9.015625 -0.3125 7.578125 0.234375 5.765625 0.234375 Z M 4.59375 -3.65625 C 4.59375 -3.238281 4.773438 -2.90625 5.140625 -2.65625 C 5.503906 -2.40625 5.984375 -2.28125 6.578125 -2.28125 C 7.453125 -2.28125 8.175781 -2.53125 8.75 -3.03125 C 9.320312 -3.539062 9.625 -4.203125 9.65625 -5.015625 L 6.34375 -5.015625 C 5.820312 -5.015625 5.398438 -4.890625 5.078125 -4.640625 C 4.753906 -4.398438 4.59375 -4.070312 4.59375 -3.65625 Z M 4.59375 -3.65625 "/></g></g></g><g fill="#ffffff" fill-opacity="1"><g transform="translate(309.973235, 194.999987)"><g><path d="M 6.390625 0.328125 C 5.285156 0.328125 4.320312 0.148438 3.5 -0.203125 C 2.6875 -0.554688 2.050781 -1.046875 1.59375 -1.671875 C 1.144531 -2.304688 0.921875 -3.046875 0.921875 -3.890625 L 4.34375 -3.890625 C 4.363281 -3.398438 4.554688 -3.007812 4.921875 -2.71875 C 5.285156 -2.425781 5.789062 -2.28125 6.4375 -2.28125 C 6.988281 -2.28125 7.414062 -2.378906 7.71875 -2.578125 C 8.03125 -2.785156 8.1875 -3.066406 8.1875 -3.421875 C 8.1875 -3.804688 7.976562 -4.125 7.5625 -4.375 C 7.15625 -4.632812 6.484375 -4.835938 5.546875 -4.984375 C 4.015625 -5.265625 2.882812 -5.710938 2.15625 -6.328125 C 1.4375 -6.941406 1.078125 -7.742188 1.078125 -8.734375 C 1.078125 -9.921875 1.515625 -10.828125 2.390625 -11.453125 C 3.273438 -12.078125 4.53125 -12.390625 6.15625 -12.390625 C 7.769531 -12.390625 9.03125 -12.046875 9.9375 -11.359375 C 10.851562 -10.671875 11.351562 -9.691406 11.4375 -8.421875 L 8.09375 -8.421875 C 8.0625 -8.878906 7.875 -9.234375 7.53125 -9.484375 C 7.1875 -9.734375 6.722656 -9.859375 6.140625 -9.859375 C 5.617188 -9.859375 5.207031 -9.757812 4.90625 -9.5625 C 4.613281 -9.363281 4.46875 -9.085938 4.46875 -8.734375 C 4.46875 -8.367188 4.660156 -8.082031 5.046875 -7.875 C 5.441406 -7.664062 6.148438 -7.457031 7.171875 -7.25 C 10.148438 -6.644531 11.640625 -5.363281 11.640625 -3.40625 C 11.640625 -2.25 11.175781 -1.335938 10.25 -0.671875 C 9.320312 -0.00390625 8.035156 0.328125 6.390625 0.328125 Z M 6.390625 0.328125 "/></g></g></g><g fill="#ffffff" fill-opacity="1"><g transform="translate(322.549994, 194.999987)"><g><path d="M 7.453125 0.328125 C 6.160156 0.328125 5.019531 0.0625 4.03125 -0.46875 C 3.039062 -1.007812 2.269531 -1.757812 1.71875 -2.71875 C 1.164062 -3.675781 0.890625 -4.785156 0.890625 -6.046875 C 0.890625 -7.304688 1.171875 -8.410156 1.734375 -9.359375 C 2.296875 -10.304688 3.070312 -11.046875 4.0625 -11.578125 C 5.050781 -12.117188 6.195312 -12.390625 7.5 -12.390625 C 8.875 -12.390625 10.0625 -12.082031 11.0625 -11.46875 C 12.070312 -10.863281 12.84375 -10.007812 13.375 -8.90625 C 13.90625 -7.800781 14.128906 -6.507812 14.046875 -5.03125 L 4.375 -5.03125 C 4.539062 -4.207031 4.90625 -3.578125 5.46875 -3.140625 C 6.039062 -2.703125 6.722656 -2.484375 7.515625 -2.484375 C 8.097656 -2.484375 8.628906 -2.59375 9.109375 -2.8125 C 9.597656 -3.039062 9.988281 -3.351562 10.28125 -3.75 L 13.828125 -3.75 C 13.304688 -2.476562 12.484375 -1.476562 11.359375 -0.75 C 10.242188 -0.03125 8.941406 0.328125 7.453125 0.328125 Z M 4.390625 -7.25 L 10.671875 -7.25 C 10.472656 -7.976562 10.097656 -8.550781 9.546875 -8.96875 C 9.003906 -9.394531 8.328125 -9.609375 7.515625 -9.609375 C 6.753906 -9.609375 6.09375 -9.394531 5.53125 -8.96875 C 4.96875 -8.550781 4.585938 -7.976562 4.390625 -7.25 Z M 4.390625 -7.25 "/></g></g></g><g clip-path="url(#1ae98e1e47)"><g clip-path="url(#053421fe92)"><g transform="matrix(1, 0, 0, 1, 46, 140)"><g clip-path="url(#ec4929013e)"><g clip-path="url(#b2ac49aaab)"><g clip-path="url(#0c9c562a09)"><path fill="#ffffff" d="M 0.484375 0.457031 L 94.566406 0.457031 L 94.566406 94.542969 L 0.484375 94.542969 Z M 0.484375 0.457031 " fill-opacity="1" fill-rule="nonzero"/></g></g></g></g></g></g><g clip-path="url(#d829cc748e)"><g clip-path="url(#67987791b7)"><path stroke-linecap="butt" transform="matrix(0.75, 0, 0, 0.75, 46.482851, 140.45876)" fill="none" stroke-linejoin="miter" d="M 62.720786 -0.00230444 C 28.080159 -0.00230444 0.00203194 28.081031 0.00203194 62.71645 C 0.00203194 97.357077 28.080159 125.435204 62.720786 125.435204 C 97.356205 125.435204 125.43954 97.357077 125.43954 62.71645 C 125.43954 28.081031 97.356205 -0.00230444 62.720786 -0.00230444 Z M 62.720786 -0.00230444 " stroke="#ff914d" stroke-width="40" stroke-opacity="1" stroke-miterlimit="4"/></g></g><g clip-path="url(#7bf5af3399)"><g clip-path="url(#4d0d17c20f)"><g transform="matrix(1, 0, 0, 1, 58, 152)"><g clip-path="url(#5a281686bf)"><g clip-path="url(#aaf27e0d72)"><g clip-path="url(#d8b2ca2e86)"><path fill="#ffffff" d="M 0.242188 0.21875 L 70.804688 0.21875 L 70.804688 70.78125 L 0.242188 70.78125 Z M 0.242188 0.21875 " fill-opacity="1" fill-rule="nonzero"/></g></g></g></g></g></g><g clip-path="url(#033d0aa945)"><g clip-path="url(#eb394e3840)"><path stroke-linecap="butt" transform="matrix(0.75, 0, 0, 0.75, 58.243671, 152.21958)" fill="none" stroke-linejoin="miter" d="M 47.039692 -0.00110614 C 21.060523 -0.00110614 -0.0019781 21.061395 -0.0019781 47.040564 C -0.0019781 73.019732 21.060523 94.077025 47.039692 94.077025 C 73.01886 94.077025 94.076153 73.019732 94.076153 47.040564 C 94.076153 21.061395 73.01886 -0.00110614 47.039692 -0.00110614 Z M 47.039692 -0.00110614 " stroke="#ffde59" stroke-width="40" stroke-opacity="1" stroke-miterlimit="4"/></g></g><g clip-path="url(#4afc93c19d)"><g clip-path="url(#2b7b9bf596)"><g transform="matrix(1, 0, 0, 1, 69, 138)"><g clip-path="url(#d95d313a86)"><g clip-path="url(#5c66d5d774)"><g clip-path="url(#3daf3bb029)"><path fill="#ff751f" d="M -3.488281 0.605469 L 52.472656 0.605469 L 52.472656 49.5 L -3.488281 49.5 Z M -3.488281 0.605469 " fill-opacity="1" fill-rule="nonzero"/></g></g></g></g></g></g><g clip-path="url(#7ae076f506)"><g clip-path="url(#ea0ca5cdd3)"><g transform="matrix(1, 0, 0, 1, 97, 187)"><g clip-path="url(#05f69b201e)"><g clip-path="url(#e50f50073d)"><g clip-path="url(#0aa2abccfe)"><path fill="#ff751f" d="M -3.476562 0.5 L 52.484375 0.5 L 52.484375 49.394531 L -3.476562 49.394531 Z M -3.476562 0.5 " fill-opacity="1" fill-rule="nonzero"/></g></g></g></g></g></g><g clip-path="url(#b36d254a67)"><g clip-path="url(#0cd35b58c9)"><g transform="matrix(1, 0, 0, 1, 41, 187)"><g clip-path="url(#ba6cae6a38)"><g clip-path="url(#dc7e8838d1)"><g clip-path="url(#91b1ad5586)"><path fill="#ff751f" d="M -3.5 0.5 L 52.460938 0.5 L 52.460938 49.394531 L -3.5 49.394531 Z M -3.5 0.5 " fill-opacity="1" fill-rule="nonzero"/></g></g></g></g></g></g><g clip-path="url(#a976aaed8e)"><path fill="#ffffff" d="M 72.171875 202.332031 C 71.953125 202.445312 71.714844 202.550781 71.464844 202.652344 C 71.417969 202.671875 71.367188 202.679688 71.316406 202.679688 C 71.15625 202.679688 71.003906 202.582031 70.941406 202.421875 C 70.859375 202.214844 70.960938 201.976562 71.167969 201.894531 C 71.394531 201.804688 71.609375 201.710938 71.804688 201.609375 C 72.003906 201.507812 72.246094 201.589844 72.347656 201.789062 C 72.449219 201.988281 72.371094 202.230469 72.171875 202.332031 M 62.230469 202.960938 C 62.191406 203.152344 62.023438 203.289062 61.832031 203.289062 C 61.808594 203.289062 61.78125 203.285156 61.757812 203.28125 C 61.449219 203.21875 61.148438 203.152344 60.859375 203.078125 C 60.644531 203.019531 60.515625 202.796875 60.570312 202.582031 C 60.628906 202.363281 60.847656 202.234375 61.0625 202.289062 C 61.335938 202.363281 61.621094 202.425781 61.910156 202.484375 C 62.128906 202.527344 62.273438 202.738281 62.230469 202.960938 M 60.070312 202.421875 C 60.007812 202.582031 59.855469 202.679688 59.691406 202.679688 C 59.644531 202.679688 59.59375 202.671875 59.546875 202.652344 C 59.292969 202.550781 59.058594 202.445312 58.839844 202.332031 C 58.640625 202.230469 58.5625 201.988281 58.664062 201.789062 C 58.761719 201.589844 59.007812 201.507812 59.207031 201.609375 C 59.398438 201.710938 59.613281 201.804688 59.839844 201.894531 C 60.046875 201.976562 60.148438 202.214844 60.070312 202.421875 M 72.015625 200.199219 C 72.863281 199.820312 73.539062 199.375 74.019531 198.886719 L 74.019531 201.980469 C 73.789062 202.714844 72.972656 203.429688 71.703125 203.996094 C 70.054688 204.730469 67.851562 205.136719 65.503906 205.136719 C 63.15625 205.136719 60.957031 204.730469 59.308594 203.996094 C 58.039062 203.429688 57.222656 202.714844 56.992188 201.980469 L 56.992188 198.886719 C 57.472656 199.375 58.144531 199.820312 58.996094 200.199219 C 60.742188 200.976562 63.050781 201.40625 65.503906 201.40625 C 67.957031 201.40625 70.269531 200.976562 72.015625 200.199219 Z M 71.382812 194.355469 C 73.085938 195.015625 74.027344 195.945312 74.027344 196.972656 C 74.027344 198.003906 73.085938 198.929688 71.382812 199.589844 C 69.808594 200.199219 67.71875 200.53125 65.503906 200.53125 C 63.289062 200.53125 61.203125 200.199219 59.625 199.589844 C 57.921875 198.929688 56.984375 198.003906 56.984375 196.972656 C 56.984375 195.945312 57.921875 195.015625 59.625 194.355469 C 61.203125 193.75 63.289062 193.414062 65.503906 193.414062 C 67.71875 193.414062 69.808594 193.75 71.382812 194.355469 Z M 72.347656 206.3125 C 72.449219 206.511719 72.371094 206.753906 72.171875 206.855469 C 71.953125 206.96875 71.714844 207.074219 71.464844 207.175781 C 71.417969 207.195312 71.367188 207.203125 71.316406 207.203125 C 71.15625 207.203125 71.003906 207.105469 70.941406 206.945312 C 70.859375 206.738281 70.960938 206.5 71.167969 206.417969 C 71.394531 206.328125 71.609375 206.234375 71.804688 206.132812 C 72.003906 206.03125 72.246094 206.113281 72.347656 206.3125 M 62.230469 207.484375 C 62.191406 207.675781 62.023438 207.8125 61.832031 207.8125 C 61.808594 207.8125 61.78125 207.808594 61.757812 207.804688 C 61.449219 207.742188 61.148438 207.675781 60.859375 207.601562 C 60.644531 207.542969 60.515625 207.320312 60.570312 207.105469 C 60.628906 206.886719 60.847656 206.757812 61.0625 206.8125 C 61.335938 206.886719 61.621094 206.949219 61.910156 207.007812 C 62.128906 207.050781 62.273438 207.261719 62.230469 207.484375 M 60.070312 206.945312 C 60.007812 207.105469 59.855469 207.203125 59.691406 207.203125 C 59.644531 207.203125 59.59375 207.195312 59.546875 207.175781 C 59.292969 207.074219 59.058594 206.96875 58.839844 206.855469 C 58.640625 206.753906 58.5625 206.511719 58.664062 206.3125 C 58.761719 206.113281 59.007812 206.03125 59.207031 206.132812 C 59.398438 206.234375 59.613281 206.328125 59.839844 206.417969 C 60.046875 206.5 60.148438 206.738281 60.070312 206.945312 M 65.503906 205.988281 C 63.050781 205.988281 60.742188 205.5625 58.996094 204.785156 C 58.144531 204.40625 57.472656 203.960938 56.992188 203.46875 L 56.992188 206.566406 C 57.222656 207.296875 58.039062 208.015625 59.308594 208.582031 C 60.957031 209.316406 63.15625 209.71875 65.503906 209.71875 C 67.851562 209.71875 70.054688 209.316406 71.703125 208.582031 C 72.972656 208.015625 73.789062 207.296875 74.019531 206.566406 L 74.019531 203.46875 C 73.539062 203.960938 72.863281 204.40625 72.015625 204.785156 C 70.269531 205.5625 67.957031 205.988281 65.503906 205.988281 M 72.347656 210.992188 C 72.449219 211.191406 72.371094 211.4375 72.171875 211.539062 C 71.953125 211.648438 71.714844 211.753906 71.464844 211.855469 C 71.417969 211.875 71.367188 211.882812 71.316406 211.882812 C 71.15625 211.882812 71.003906 211.785156 70.941406 211.625 C 70.859375 211.417969 70.960938 211.183594 71.167969 211.101562 C 71.394531 211.011719 71.609375 210.914062 71.804688 210.8125 C 72.003906 210.710938 72.246094 210.792969 72.347656 210.992188 M 62.230469 212.164062 C 62.191406 212.359375 62.023438 212.492188 61.832031 212.492188 C 61.808594 212.492188 61.78125 212.488281 61.757812 212.484375 C 61.449219 212.425781 61.148438 212.355469 60.859375 212.28125 C 60.644531 212.222656 60.515625 212.003906 60.570312 211.785156 C 60.628906 211.570312 60.847656 211.4375 61.0625 211.496094 C 61.335938 211.566406 61.621094 211.628906 61.910156 211.6875 C 62.128906 211.730469 62.273438 211.945312 62.230469 212.164062 M 60.070312 211.625 C 60.007812 211.785156 59.855469 211.882812 59.691406 211.882812 C 59.644531 211.882812 59.59375 211.875 59.546875 211.855469 C 59.292969 211.753906 59.058594 211.648438 58.839844 211.539062 C 58.640625 211.4375 58.5625 211.191406 58.664062 210.992188 C 58.761719 210.792969 59.007812 210.710938 59.207031 210.8125 C 59.398438 210.914062 59.613281 211.011719 59.839844 211.101562 C 60.046875 211.183594 60.148438 211.417969 60.070312 211.625 M 65.503906 210.5 C 63.050781 210.5 60.742188 210.070312 58.996094 209.292969 C 58.144531 208.917969 57.472656 208.472656 56.992188 207.980469 L 56.992188 211.078125 C 57.222656 211.808594 58.039062 212.527344 59.308594 213.09375 C 60.957031 213.828125 63.15625 214.230469 65.503906 214.230469 C 67.851562 214.230469 70.054688 213.828125 71.703125 213.09375 C 72.972656 212.527344 73.789062 211.808594 74.019531 211.078125 L 74.019531 207.980469 C 73.539062 208.472656 72.863281 208.917969 72.015625 209.292969 C 70.269531 210.070312 67.957031 210.5 65.503906 210.5 " fill-opacity="1" fill-rule="evenodd"/></g><g clip-path="url(#13f1e99a33)"><path fill="#ffffff" d="M 127.308594 204.308594 C 126.15625 203.492188 124.722656 203.414062 123.484375 204.050781 C 122.207031 204.734375 120.535156 204.765625 119.238281 204.121094 C 117.882812 203.480469 116.328125 203.734375 115.183594 204.773438 C 113.75 206.070312 112.832031 208.074219 112.832031 210.324219 C 112.832031 214.238281 115.609375 213.96875 119.03125 213.96875 L 124.035156 213.972656 C 127.457031 213.972656 130.234375 214.238281 130.234375 210.324219 C 130.234375 207.785156 129.066406 205.5625 127.308594 204.308594 Z M 127.308594 204.308594 " fill-opacity="1" fill-rule="nonzero"/></g><g clip-path="url(#922f6c1db7)"><path fill="#ffffff" d="M 121.285156 204.214844 C 123.957031 204.214844 126.128906 201.792969 126.128906 198.8125 C 126.128906 195.835938 123.957031 193.414062 121.285156 193.414062 C 118.613281 193.414062 116.4375 195.835938 116.4375 198.8125 C 116.4375 201.792969 118.613281 204.214844 121.285156 204.214844 Z M 121.285156 204.214844 " fill-opacity="1" fill-rule="nonzero"/></g><g clip-path="url(#bcd31c8836)"><path fill="#ffffff" d="M 84.175781 145.34375 C 84.339844 145.34375 84.503906 145.363281 84.667969 145.402344 C 84.828125 145.4375 84.984375 145.496094 85.132812 145.566406 C 85.28125 145.640625 85.417969 145.730469 85.546875 145.835938 C 85.675781 145.941406 85.789062 146.058594 85.890625 146.191406 C 85.992188 146.320312 86.078125 146.464844 86.144531 146.613281 C 86.214844 146.765625 86.261719 146.921875 86.296875 147.085938 C 86.328125 147.246094 86.34375 147.410156 86.335938 147.578125 C 86.332031 147.742188 86.308594 147.90625 86.265625 148.066406 C 86.222656 148.226562 86.160156 148.378906 86.082031 148.527344 C 86.003906 148.671875 85.910156 148.808594 85.800781 148.933594 C 85.691406 149.058594 85.570312 149.167969 85.433594 149.265625 C 85.300781 149.359375 85.15625 149.441406 85.003906 149.503906 C 84.851562 149.566406 84.691406 149.613281 84.527344 149.640625 C 84.363281 149.667969 84.199219 149.675781 84.035156 149.664062 C 83.867188 149.652344 83.707031 149.625 83.546875 149.574219 C 83.390625 149.527344 83.238281 149.460938 83.09375 149.378906 C 82.949219 149.296875 82.820312 149.199219 82.699219 149.085938 C 82.578125 148.972656 82.46875 148.847656 82.378906 148.707031 C 82.285156 148.570312 82.210938 148.421875 82.152344 148.269531 C 82.09375 148.113281 82.054688 147.953125 82.03125 147.789062 C 82.011719 147.625 82.007812 147.460938 82.023438 147.296875 C 82.039062 147.128906 82.074219 146.96875 82.128906 146.8125 C 82.183594 146.65625 82.253906 146.507812 82.339844 146.363281 C 82.425781 146.222656 82.53125 146.09375 82.648438 145.976562 C 83.070312 145.554688 83.578125 145.34375 84.175781 145.34375 Z M 99.0625 148.058594 C 99.035156 147.9375 99.082031 147.867188 99.203125 147.839844 C 99.324219 147.816406 99.394531 147.863281 99.417969 147.984375 L 100.132812 151.390625 C 100.160156 151.507812 100.113281 151.582031 99.992188 151.605469 C 99.875 151.632812 99.800781 151.585938 99.777344 151.464844 Z M 100.148438 153.238281 C 100.125 153.121094 100.171875 153.046875 100.292969 153.023438 C 100.410156 153 100.484375 153.046875 100.507812 153.164062 L 100.992188 155.46875 C 101.019531 155.589844 100.96875 155.660156 100.851562 155.683594 C 100.730469 155.710938 100.660156 155.664062 100.632812 155.542969 Z M 94.472656 157.332031 C 94.378906 157.410156 94.292969 157.402344 94.214844 157.308594 C 94.136719 157.214844 94.144531 157.128906 94.238281 157.050781 L 94.59375 156.753906 C 94.6875 156.671875 94.773438 156.679688 94.851562 156.773438 C 94.929688 156.867188 94.921875 156.953125 94.828125 157.03125 Z M 99.042969 153.480469 C 98.953125 153.558594 98.867188 153.550781 98.789062 153.457031 C 98.710938 153.363281 98.71875 153.277344 98.808594 153.199219 L 100.613281 151.679688 C 100.707031 151.605469 100.792969 151.613281 100.867188 151.703125 C 100.945312 151.796875 100.9375 151.882812 100.847656 151.960938 Z M 87.703125 155.246094 C 87.613281 155.324219 87.527344 155.320312 87.449219 155.226562 C 87.367188 155.136719 87.375 155.050781 87.464844 154.96875 L 89.074219 153.570312 C 89.164062 153.492188 89.25 153.5 89.328125 153.589844 C 89.410156 153.679688 89.402344 153.765625 89.3125 153.847656 Z M 93.457031 150.246094 C 93.363281 150.328125 93.277344 150.324219 93.195312 150.230469 C 93.113281 150.136719 93.117188 150.046875 93.214844 149.96875 L 96.660156 146.972656 C 96.753906 146.886719 96.839844 146.890625 96.921875 146.984375 C 97.003906 147.082031 96.996094 147.167969 96.902344 147.246094 Z M 86.625 149.136719 C 86.519531 149.074219 86.503906 148.988281 86.566406 148.886719 C 86.632812 148.78125 86.714844 148.765625 86.820312 148.828125 L 89.015625 150.210938 C 89.117188 150.277344 89.136719 150.359375 89.074219 150.460938 C 89.007812 150.566406 88.925781 150.585938 88.820312 150.519531 Z M 93.519531 153.476562 C 93.414062 153.410156 93.394531 153.328125 93.460938 153.222656 C 93.527344 153.121094 93.609375 153.101562 93.710938 153.167969 L 94.453125 153.632812 C 94.558594 153.695312 94.578125 153.78125 94.511719 153.886719 C 94.445312 153.992188 94.359375 154.007812 94.257812 153.941406 Z M 98.738281 156.761719 C 98.636719 156.695312 98.617188 156.613281 98.683594 156.507812 C 98.746094 156.40625 98.832031 156.386719 98.933594 156.453125 L 99.496094 156.804688 C 99.597656 156.871094 99.613281 156.953125 99.550781 157.054688 C 99.488281 157.15625 99.402344 157.175781 99.300781 157.117188 Z M 85.40625 150.019531 C 85.335938 149.925781 85.347656 149.839844 85.445312 149.765625 C 85.542969 149.691406 85.628906 149.703125 85.699219 149.800781 L 88.277344 153.226562 C 88.347656 153.324219 88.335938 153.410156 88.242188 153.480469 C 88.144531 153.554688 88.058594 153.542969 87.988281 153.445312 Z M 89.128906 154.964844 C 89.058594 154.867188 89.070312 154.785156 89.167969 154.714844 C 89.261719 154.640625 89.347656 154.652344 89.421875 154.746094 L 90.707031 156.453125 C 90.777344 156.550781 90.765625 156.636719 90.667969 156.707031 C 90.574219 156.78125 90.488281 156.769531 90.414062 156.675781 Z M 98.863281 144.101562 C 99.105469 144.101562 99.3125 144.1875 99.484375 144.359375 C 99.652344 144.53125 99.738281 144.738281 99.738281 144.976562 C 99.738281 145.21875 99.652344 145.425781 99.484375 145.597656 C 99.3125 145.769531 99.105469 145.851562 98.863281 145.855469 C 99.421875 145.851562 99.847656 146.089844 100.136719 146.566406 C 100.304688 146.394531 100.433594 146.203125 100.523438 145.980469 C 100.617188 145.761719 100.660156 145.53125 100.660156 145.292969 C 100.660156 145.058594 100.613281 144.828125 100.523438 144.609375 C 100.429688 144.390625 100.300781 144.195312 100.132812 144.027344 C 99.964844 143.859375 99.769531 143.730469 99.550781 143.640625 C 99.332031 143.546875 99.101562 143.503906 98.863281 143.503906 C 98.625 143.503906 98.398438 143.546875 98.179688 143.640625 C 97.957031 143.730469 97.765625 143.859375 97.597656 144.027344 C 97.425781 144.195312 97.296875 144.390625 97.207031 144.609375 C 97.113281 144.828125 97.070312 145.058594 97.070312 145.292969 C 97.066406 145.53125 97.113281 145.761719 97.203125 145.980469 C 97.292969 146.203125 97.421875 146.394531 97.589844 146.566406 C 97.882812 146.089844 98.308594 145.851562 98.863281 145.851562 C 98.621094 145.851562 98.417969 145.769531 98.246094 145.597656 C 98.074219 145.425781 97.988281 145.21875 97.988281 144.976562 C 97.988281 144.738281 98.074219 144.53125 98.246094 144.359375 C 98.417969 144.1875 98.621094 144.101562 98.863281 144.101562 Z M 98.863281 143.136719 C 99.03125 143.136719 99.195312 143.15625 99.355469 143.191406 C 99.515625 143.230469 99.671875 143.285156 99.820312 143.359375 C 99.96875 143.433594 100.109375 143.523438 100.234375 143.628906 C 100.363281 143.730469 100.480469 143.851562 100.578125 143.980469 C 100.679688 144.113281 100.765625 144.253906 100.832031 144.40625 C 100.902344 144.558594 100.953125 144.714844 100.984375 144.875 C 101.015625 145.039062 101.03125 145.203125 101.023438 145.367188 C 101.019531 145.535156 100.996094 145.699219 100.953125 145.859375 C 100.910156 146.019531 100.847656 146.171875 100.769531 146.316406 C 100.691406 146.464844 100.597656 146.597656 100.488281 146.722656 C 100.378906 146.847656 100.257812 146.960938 100.125 147.054688 C 99.988281 147.152344 99.84375 147.230469 99.691406 147.296875 C 99.539062 147.359375 99.378906 147.40625 99.214844 147.429688 C 99.054688 147.457031 98.886719 147.464844 98.722656 147.457031 C 98.558594 147.445312 98.394531 147.414062 98.238281 147.367188 C 98.078125 147.320312 97.925781 147.253906 97.785156 147.171875 C 97.640625 147.085938 97.507812 146.988281 97.386719 146.875 C 97.265625 146.761719 97.160156 146.636719 97.066406 146.5 C 96.976562 146.363281 96.898438 146.214844 96.839844 146.058594 C 96.78125 145.90625 96.742188 145.746094 96.722656 145.582031 C 96.699219 145.417969 96.695312 145.25 96.710938 145.085938 C 96.730469 144.921875 96.765625 144.761719 96.816406 144.601562 C 96.871094 144.445312 96.941406 144.296875 97.027344 144.15625 C 97.117188 144.015625 97.21875 143.886719 97.335938 143.769531 C 97.757812 143.347656 98.265625 143.136719 98.863281 143.136719 Z M 102.921875 149.210938 C 103.164062 149.214844 103.367188 149.300781 103.539062 149.46875 C 103.707031 149.640625 103.792969 149.847656 103.792969 150.085938 C 103.792969 150.328125 103.707031 150.53125 103.539062 150.703125 C 103.367188 150.871094 103.164062 150.960938 102.921875 150.960938 C 103.480469 150.960938 103.90625 151.199219 104.195312 151.671875 C 104.363281 151.503906 104.492188 151.308594 104.582031 151.089844 C 104.675781 150.867188 104.71875 150.640625 104.71875 150.402344 C 104.71875 150.164062 104.671875 149.933594 104.582031 149.714844 C 104.488281 149.496094 104.359375 149.300781 104.191406 149.132812 C 104.023438 148.964844 103.828125 148.835938 103.609375 148.746094 C 103.390625 148.652344 103.160156 148.609375 102.921875 148.609375 C 102.683594 148.609375 102.457031 148.652344 102.234375 148.746094 C 102.015625 148.835938 101.820312 148.964844 101.652344 149.132812 C 101.484375 149.300781 101.355469 149.496094 101.261719 149.714844 C 101.171875 149.933594 101.125 150.164062 101.125 150.402344 C 101.125 150.640625 101.171875 150.867188 101.261719 151.089844 C 101.351562 151.308594 101.480469 151.503906 101.648438 151.671875 C 101.941406 151.199219 102.367188 150.960938 102.921875 150.960938 C 102.679688 150.960938 102.472656 150.878906 102.300781 150.707031 C 102.128906 150.535156 102.042969 150.328125 102.042969 150.085938 C 102.042969 149.84375 102.128906 149.636719 102.300781 149.464844 C 102.472656 149.292969 102.679688 149.210938 102.921875 149.210938 Z M 102.921875 148.242188 C 103.089844 148.242188 103.253906 148.261719 103.414062 148.300781 C 103.574219 148.339844 103.730469 148.394531 103.878906 148.46875 C 104.027344 148.539062 104.167969 148.628906 104.292969 148.734375 C 104.421875 148.839844 104.535156 148.957031 104.636719 149.089844 C 104.738281 149.222656 104.824219 149.363281 104.890625 149.515625 C 104.960938 149.664062 105.011719 149.820312 105.042969 149.984375 C 105.074219 150.148438 105.089844 150.3125 105.082031 150.476562 C 105.078125 150.644531 105.054688 150.804688 105.011719 150.964844 C 104.96875 151.125 104.90625 151.28125 104.828125 151.425781 C 104.75 151.570312 104.65625 151.707031 104.546875 151.832031 C 104.4375 151.957031 104.316406 152.066406 104.179688 152.164062 C 104.046875 152.261719 103.902344 152.339844 103.75 152.402344 C 103.59375 152.464844 103.4375 152.511719 103.273438 152.539062 C 103.109375 152.566406 102.945312 152.574219 102.78125 152.5625 C 102.613281 152.550781 102.453125 152.523438 102.292969 152.472656 C 102.136719 152.425781 101.984375 152.359375 101.839844 152.277344 C 101.695312 152.195312 101.566406 152.097656 101.445312 151.984375 C 101.324219 151.871094 101.214844 151.746094 101.125 151.605469 C 101.03125 151.46875 100.957031 151.320312 100.898438 151.167969 C 100.839844 151.011719 100.800781 150.851562 100.777344 150.6875 C 100.757812 150.523438 100.753906 150.359375 100.769531 150.195312 C 100.785156 150.027344 100.820312 149.867188 100.875 149.710938 C 100.929688 149.554688 101 149.40625 101.085938 149.265625 C 101.171875 149.125 101.277344 148.996094 101.394531 148.878906 C 101.816406 148.453125 102.324219 148.242188 102.921875 148.242188 Z M 101.808594 157.199219 C 102.050781 157.199219 102.253906 157.285156 102.425781 157.457031 C 102.597656 157.628906 102.683594 157.835938 102.683594 158.078125 C 102.683594 158.316406 102.597656 158.523438 102.425781 158.695312 C 102.253906 158.867188 102.050781 158.953125 101.808594 158.953125 C 102.363281 158.949219 102.789062 159.1875 103.082031 159.664062 C 103.25 159.492188 103.378906 159.300781 103.46875 159.078125 C 103.558594 158.859375 103.605469 158.628906 103.601562 158.394531 C 103.601562 158.15625 103.558594 157.925781 103.464844 157.707031 C 103.375 157.488281 103.242188 157.292969 103.074219 157.125 C 102.90625 156.957031 102.714844 156.828125 102.492188 156.738281 C 102.273438 156.648438 102.046875 156.601562 101.808594 156.601562 C 101.570312 156.601562 101.339844 156.648438 101.121094 156.738281 C 100.902344 156.828125 100.707031 156.957031 100.539062 157.125 C 100.371094 157.292969 100.242188 157.488281 100.148438 157.707031 C 100.058594 157.925781 100.011719 158.15625 100.011719 158.394531 C 100.011719 158.628906 100.054688 158.859375 100.144531 159.078125 C 100.238281 159.300781 100.367188 159.492188 100.53125 159.664062 C 100.824219 159.1875 101.25 158.949219 101.808594 158.953125 C 101.566406 158.953125 101.359375 158.867188 101.1875 158.695312 C 101.019531 158.523438 100.933594 158.316406 100.933594 158.078125 C 100.933594 157.835938 101.019531 157.628906 101.1875 157.457031 C 101.359375 157.285156 101.566406 157.203125 101.808594 157.199219 Z M 101.808594 156.234375 C 101.972656 156.234375 102.136719 156.253906 102.296875 156.289062 C 102.460938 156.328125 102.613281 156.382812 102.761719 156.457031 C 102.914062 156.53125 103.050781 156.621094 103.179688 156.726562 C 103.308594 156.832031 103.421875 156.949219 103.523438 157.078125 C 103.625 157.210938 103.707031 157.351562 103.777344 157.503906 C 103.84375 157.65625 103.894531 157.8125 103.929688 157.972656 C 103.960938 158.136719 103.972656 158.300781 103.96875 158.46875 C 103.964844 158.632812 103.9375 158.796875 103.894531 158.957031 C 103.851562 159.117188 103.792969 159.269531 103.714844 159.414062 C 103.636719 159.5625 103.542969 159.695312 103.433594 159.820312 C 103.324219 159.945312 103.203125 160.058594 103.066406 160.152344 C 102.933594 160.25 102.789062 160.332031 102.636719 160.394531 C 102.480469 160.457031 102.324219 160.503906 102.160156 160.53125 C 101.996094 160.554688 101.832031 160.566406 101.667969 160.554688 C 101.5 160.542969 101.339844 160.511719 101.179688 160.464844 C 101.019531 160.417969 100.871094 160.351562 100.726562 160.269531 C 100.582031 160.1875 100.449219 160.085938 100.328125 159.972656 C 100.207031 159.859375 100.101562 159.734375 100.011719 159.597656 C 99.917969 159.460938 99.84375 159.3125 99.785156 159.15625 C 99.726562 159.003906 99.6875 158.84375 99.664062 158.679688 C 99.640625 158.515625 99.640625 158.347656 99.65625 158.183594 C 99.671875 158.019531 99.707031 157.859375 99.761719 157.703125 C 99.8125 157.542969 99.882812 157.394531 99.972656 157.253906 C 100.058594 157.113281 100.160156 156.984375 100.277344 156.867188 C 100.699219 156.445312 101.210938 156.234375 101.808594 156.234375 Z M 96.660156 153.933594 C 96.902344 153.933594 97.109375 154.019531 97.28125 154.1875 C 97.453125 154.359375 97.539062 154.566406 97.539062 154.808594 C 97.539062 155.050781 97.453125 155.257812 97.28125 155.429688 C 97.109375 155.601562 96.902344 155.6875 96.660156 155.683594 C 97.21875 155.683594 97.640625 155.921875 97.933594 156.394531 C 98.101562 156.226562 98.230469 156.03125 98.320312 155.8125 C 98.414062 155.59375 98.457031 155.363281 98.457031 155.125 C 98.457031 154.886719 98.410156 154.660156 98.320312 154.4375 C 98.226562 154.21875 98.097656 154.023438 97.929688 153.855469 C 97.761719 153.6875 97.566406 153.558594 97.347656 153.46875 C 97.128906 153.378906 96.898438 153.332031 96.660156 153.332031 C 96.421875 153.332031 96.195312 153.378906 95.972656 153.46875 C 95.753906 153.558594 95.558594 153.6875 95.390625 153.855469 C 95.222656 154.023438 95.09375 154.21875 95 154.4375 C 94.910156 154.660156 94.863281 154.886719 94.863281 155.125 C 94.863281 155.363281 94.910156 155.59375 95 155.8125 C 95.089844 156.03125 95.21875 156.226562 95.386719 156.394531 C 95.679688 155.921875 96.101562 155.683594 96.660156 155.683594 C 96.417969 155.6875 96.210938 155.601562 96.039062 155.429688 C 95.863281 155.257812 95.777344 155.050781 95.777344 154.808594 C 95.777344 154.566406 95.863281 154.359375 96.039062 154.1875 C 96.210938 154.019531 96.417969 153.933594 96.660156 153.933594 Z M 96.660156 152.96875 C 96.824219 152.96875 96.988281 152.984375 97.152344 153.023438 C 97.3125 153.0625 97.46875 153.117188 97.617188 153.191406 C 97.765625 153.261719 97.902344 153.351562 98.03125 153.457031 C 98.160156 153.5625 98.273438 153.679688 98.375 153.8125 C 98.476562 153.945312 98.5625 154.085938 98.628906 154.238281 C 98.699219 154.386719 98.746094 154.542969 98.78125 154.707031 C 98.8125 154.871094 98.824219 155.035156 98.820312 155.199219 C 98.816406 155.367188 98.792969 155.527344 98.75 155.6875 C 98.707031 155.847656 98.644531 156 98.566406 156.148438 C 98.488281 156.292969 98.394531 156.429688 98.285156 156.554688 C 98.175781 156.679688 98.054688 156.789062 97.917969 156.886719 C 97.785156 156.984375 97.640625 157.0625 97.488281 157.125 C 97.335938 157.191406 97.175781 157.234375 97.011719 157.261719 C 96.847656 157.289062 96.683594 157.296875 96.519531 157.285156 C 96.351562 157.277344 96.191406 157.246094 96.03125 157.199219 C 95.875 157.148438 95.722656 157.085938 95.578125 157 C 95.433594 156.917969 95.304688 156.820312 95.183594 156.707031 C 95.0625 156.59375 94.953125 156.46875 94.863281 156.332031 C 94.769531 156.191406 94.695312 156.046875 94.636719 155.890625 C 94.578125 155.734375 94.539062 155.574219 94.515625 155.410156 C 94.496094 155.246094 94.492188 155.082031 94.507812 154.917969 C 94.523438 154.753906 94.558594 154.589844 94.613281 154.433594 C 94.664062 154.277344 94.734375 154.128906 94.824219 153.988281 C 94.910156 153.847656 95.015625 153.71875 95.132812 153.601562 C 95.554688 153.179688 96.0625 152.96875 96.660156 152.96875 Z M 92.320312 157.710938 C 92.5625 157.714844 92.765625 157.800781 92.9375 157.972656 C 93.105469 158.140625 93.191406 158.347656 93.191406 158.585938 C 93.191406 158.828125 93.105469 159.035156 92.9375 159.203125 C 92.765625 159.375 92.5625 159.460938 92.320312 159.460938 C 92.878906 159.460938 93.304688 159.699219 93.597656 160.171875 C 93.761719 160.003906 93.890625 159.8125 93.984375 159.589844 C 94.074219 159.371094 94.117188 159.140625 94.117188 158.902344 C 94.117188 158.667969 94.070312 158.4375 93.980469 158.21875 C 93.886719 158 93.757812 157.804688 93.589844 157.636719 C 93.421875 157.46875 93.226562 157.339844 93.007812 157.25 C 92.789062 157.15625 92.558594 157.113281 92.320312 157.113281 C 92.085938 157.113281 91.855469 157.15625 91.636719 157.25 C 91.414062 157.339844 91.222656 157.46875 91.054688 157.636719 C 90.886719 157.804688 90.753906 158 90.664062 158.21875 C 90.574219 158.4375 90.527344 158.667969 90.527344 158.902344 C 90.523438 159.140625 90.570312 159.371094 90.660156 159.589844 C 90.75 159.8125 90.878906 160.003906 91.046875 160.171875 C 91.339844 159.699219 91.765625 159.460938 92.320312 159.460938 C 92.082031 159.460938 91.875 159.375 91.707031 159.203125 C 91.539062 159.035156 91.453125 158.828125 91.453125 158.585938 C 91.453125 158.347656 91.539062 158.140625 91.707031 157.972656 C 91.875 157.800781 92.082031 157.714844 92.320312 157.710938 Z M 92.320312 156.746094 C 92.488281 156.746094 92.652344 156.765625 92.8125 156.800781 C 92.972656 156.839844 93.128906 156.894531 93.277344 156.96875 C 93.425781 157.042969 93.566406 157.132812 93.691406 157.234375 C 93.820312 157.339844 93.9375 157.460938 94.035156 157.589844 C 94.136719 157.722656 94.222656 157.863281 94.292969 158.015625 C 94.359375 158.167969 94.410156 158.324219 94.441406 158.484375 C 94.476562 158.648438 94.488281 158.8125 94.484375 158.976562 C 94.476562 159.144531 94.453125 159.308594 94.410156 159.46875 C 94.367188 159.628906 94.308594 159.78125 94.230469 159.925781 C 94.152344 160.074219 94.058594 160.207031 93.949219 160.332031 C 93.839844 160.457031 93.714844 160.566406 93.582031 160.664062 C 93.445312 160.761719 93.300781 160.839844 93.148438 160.90625 C 92.996094 160.96875 92.835938 161.011719 92.675781 161.039062 C 92.511719 161.066406 92.347656 161.074219 92.179688 161.066406 C 92.015625 161.054688 91.851562 161.023438 91.695312 160.976562 C 91.535156 160.929688 91.382812 160.863281 91.242188 160.78125 C 91.097656 160.695312 90.964844 160.597656 90.84375 160.484375 C 90.722656 160.371094 90.617188 160.246094 90.523438 160.109375 C 90.433594 159.972656 90.355469 159.824219 90.296875 159.667969 C 90.238281 159.515625 90.199219 159.355469 90.179688 159.191406 C 90.15625 159.027344 90.152344 158.859375 90.171875 158.695312 C 90.1875 158.53125 90.222656 158.371094 90.273438 158.210938 C 90.328125 158.054688 90.398438 157.90625 90.484375 157.765625 C 90.574219 157.625 90.675781 157.496094 90.792969 157.378906 C 91.214844 156.957031 91.722656 156.746094 92.320312 156.746094 Z M 91.273438 150.714844 C 91.515625 150.714844 91.722656 150.796875 91.894531 150.96875 C 92.066406 151.140625 92.152344 151.347656 92.152344 151.589844 C 92.152344 151.832031 92.066406 152.039062 91.894531 152.210938 C 91.722656 152.382812 91.515625 152.464844 91.273438 152.464844 C 91.828125 152.464844 92.253906 152.703125 92.546875 153.175781 C 92.714844 153.007812 92.84375 152.8125 92.933594 152.59375 C 93.023438 152.375 93.070312 152.144531 93.070312 151.90625 C 93.070312 151.667969 93.023438 151.441406 92.929688 151.21875 C 92.839844 151 92.710938 150.808594 92.542969 150.640625 C 92.375 150.46875 92.179688 150.339844 91.960938 150.25 C 91.738281 150.160156 91.511719 150.113281 91.273438 150.113281 C 91.035156 150.113281 90.804688 150.160156 90.585938 150.25 C 90.367188 150.339844 90.171875 150.46875 90.003906 150.640625 C 89.835938 150.808594 89.707031 151 89.613281 151.21875 C 89.523438 151.441406 89.476562 151.667969 89.476562 151.90625 C 89.476562 152.144531 89.519531 152.375 89.613281 152.59375 C 89.703125 152.8125 89.832031 153.007812 90 153.175781 C 90.289062 152.703125 90.714844 152.464844 91.273438 152.464844 C 91.027344 152.46875 90.820312 152.382812 90.648438 152.210938 C 90.476562 152.039062 90.390625 151.832031 90.390625 151.589844 C 90.390625 151.347656 90.476562 151.140625 90.648438 150.96875 C 90.820312 150.796875 91.027344 150.714844 91.273438 150.714844 Z M 91.273438 149.75 C 91.4375 149.75 91.601562 149.769531 91.761719 149.804688 C 91.925781 149.84375 92.078125 149.898438 92.226562 149.972656 C 92.378906 150.046875 92.515625 150.132812 92.644531 150.238281 C 92.773438 150.34375 92.886719 150.464844 92.988281 150.59375 C 93.089844 150.726562 93.171875 150.867188 93.242188 151.019531 C 93.308594 151.167969 93.359375 151.328125 93.394531 151.488281 C 93.425781 151.652344 93.4375 151.816406 93.433594 151.980469 C 93.425781 152.148438 93.402344 152.308594 93.359375 152.46875 C 93.316406 152.628906 93.257812 152.785156 93.179688 152.929688 C 93.101562 153.074219 93.007812 153.210938 92.898438 153.335938 C 92.789062 153.460938 92.667969 153.570312 92.53125 153.667969 C 92.398438 153.765625 92.253906 153.84375 92.101562 153.910156 C 91.945312 153.972656 91.789062 154.015625 91.625 154.042969 C 91.460938 154.070312 91.296875 154.078125 91.132812 154.066406 C 90.964844 154.058594 90.804688 154.027344 90.644531 153.980469 C 90.484375 153.933594 90.335938 153.867188 90.191406 153.785156 C 90.046875 153.699219 89.914062 153.601562 89.792969 153.488281 C 89.671875 153.375 89.566406 153.25 89.476562 153.113281 C 89.382812 152.972656 89.308594 152.828125 89.25 152.671875 C 89.191406 152.515625 89.152344 152.359375 89.128906 152.191406 C 89.105469 152.027344 89.105469 151.863281 89.121094 151.699219 C 89.136719 151.535156 89.171875 151.375 89.226562 151.214844 C 89.277344 151.058594 89.347656 150.910156 89.4375 150.769531 C 89.523438 150.628906 89.625 150.5 89.742188 150.382812 C 90.164062 149.960938 90.675781 149.75 91.273438 149.75 Z M 85.253906 155.644531 C 85.496094 155.644531 85.703125 155.730469 85.875 155.898438 C 86.042969 156.070312 86.128906 156.277344 86.128906 156.519531 C 86.128906 156.761719 86.042969 156.964844 85.875 157.136719 C 85.703125 157.308594 85.496094 157.394531 85.253906 157.394531 C 85.8125 157.394531 86.238281 157.628906 86.53125 158.105469 C 86.695312 157.933594 86.824219 157.742188 86.917969 157.519531 C 87.007812 157.300781 87.050781 157.074219 87.050781 156.835938 C 87.050781 156.597656 87.003906 156.367188 86.914062 156.148438 C 86.820312 155.929688 86.691406 155.734375 86.523438 155.566406 C 86.355469 155.398438 86.160156 155.269531 85.941406 155.179688 C 85.722656 155.089844 85.492188 155.042969 85.253906 155.042969 C 85.015625 155.042969 84.789062 155.089844 84.570312 155.179688 C 84.347656 155.269531 84.15625 155.398438 83.988281 155.566406 C 83.816406 155.734375 83.6875 155.929688 83.597656 156.148438 C 83.503906 156.367188 83.460938 156.597656 83.460938 156.835938 C 83.457031 157.074219 83.503906 157.300781 83.59375 157.519531 C 83.683594 157.742188 83.8125 157.933594 83.980469 158.105469 C 84.273438 157.628906 84.699219 157.394531 85.253906 157.394531 C 85.011719 157.394531 84.808594 157.308594 84.636719 157.136719 C 84.464844 156.964844 84.378906 156.761719 84.378906 156.519531 C 84.378906 156.277344 84.464844 156.070312 84.636719 155.898438 C 84.808594 155.730469 85.011719 155.644531 85.253906 155.644531 Z M 85.253906 154.675781 C 85.421875 154.675781 85.585938 154.695312 85.746094 154.730469 C 85.90625 154.769531 86.0625 154.824219 86.210938 154.898438 C 86.359375 154.972656 86.5 155.0625 86.625 155.167969 C 86.753906 155.273438 86.871094 155.390625 86.96875 155.523438 C 87.070312 155.652344 87.15625 155.792969 87.222656 155.945312 C 87.292969 156.097656 87.34375 156.253906 87.375 156.414062 C 87.40625 156.578125 87.421875 156.742188 87.417969 156.910156 C 87.410156 157.074219 87.386719 157.238281 87.34375 157.398438 C 87.300781 157.558594 87.238281 157.710938 87.160156 157.855469 C 87.082031 158.003906 86.988281 158.136719 86.878906 158.261719 C 86.769531 158.386719 86.648438 158.5 86.515625 158.59375 C 86.378906 158.691406 86.234375 158.773438 86.082031 158.835938 C 85.929688 158.898438 85.769531 158.945312 85.609375 158.972656 C 85.445312 158.996094 85.28125 159.007812 85.113281 158.996094 C 84.949219 158.984375 84.785156 158.953125 84.628906 158.90625 C 84.46875 158.859375 84.316406 158.792969 84.175781 158.710938 C 84.03125 158.628906 83.898438 158.527344 83.777344 158.414062 C 83.65625 158.300781 83.550781 158.175781 83.457031 158.039062 C 83.367188 157.902344 83.289062 157.753906 83.230469 157.597656 C 83.171875 157.445312 83.132812 157.285156 83.113281 157.121094 C 83.089844 156.957031 83.085938 156.792969 83.105469 156.625 C 83.121094 156.460938 83.15625 156.300781 83.207031 156.144531 C 83.261719 155.984375 83.332031 155.835938 83.417969 155.695312 C 83.507812 155.554688 83.609375 155.425781 83.726562 155.308594 C 84.148438 154.886719 84.65625 154.675781 85.253906 154.675781 Z M 84.175781 146.3125 C 84.417969 146.308594 84.625 146.394531 84.796875 146.566406 C 84.972656 146.738281 85.058594 146.945312 85.058594 147.1875 C 85.058594 147.429688 84.972656 147.636719 84.796875 147.808594 C 84.625 147.980469 84.417969 148.0625 84.175781 148.0625 C 84.734375 148.0625 85.15625 148.296875 85.449219 148.773438 C 85.617188 148.605469 85.746094 148.410156 85.835938 148.191406 C 85.929688 147.96875 85.972656 147.742188 85.972656 147.503906 C 85.972656 147.265625 85.925781 147.035156 85.835938 146.816406 C 85.742188 146.597656 85.613281 146.402344 85.445312 146.234375 C 85.277344 146.066406 85.082031 145.9375 84.863281 145.847656 C 84.644531 145.753906 84.414062 145.710938 84.175781 145.710938 C 83.9375 145.710938 83.710938 145.753906 83.488281 145.847656 C 83.269531 145.9375 83.074219 146.066406 82.90625 146.234375 C 82.738281 146.402344 82.609375 146.597656 82.515625 146.816406 C 82.425781 147.035156 82.378906 147.265625 82.378906 147.503906 C 82.378906 147.742188 82.425781 147.96875 82.515625 148.191406 C 82.605469 148.410156 82.734375 148.605469 82.902344 148.773438 C 83.195312 148.296875 83.617188 148.0625 84.175781 148.0625 C 83.933594 148.058594 83.730469 147.972656 83.5625 147.804688 C 83.390625 147.632812 83.304688 147.425781 83.304688 147.1875 C 83.304688 146.945312 83.390625 146.742188 83.5625 146.570312 C 83.730469 146.398438 83.933594 146.3125 84.175781 146.3125 Z M 84.175781 146.3125 " fill-opacity="1" fill-rule="nonzero"/></g><g clip-path="url(#50f6a9b036)"><g clip-path="url(#73e3393eb1)"><g transform="matrix(1, 0, 0, 1, 81, 175)"><g clip-path="url(#3149b79d4b)"><g clip-path="url(#455b3ba2e5)"><g clip-path="url(#042a5d97bf)"><path fill="url(#acec0ef1c0)" d="M 0.34375 0.320312 L 0.34375 24.679688 L 24.703125 24.679688 L 24.703125 0.320312 Z M 0.34375 0.320312 " fill-rule="nonzero"/></g></g></g></g></g></g></svg>