<svg xmlns="http://www.w3.org/2000/svg" xmlns:xlink="http://www.w3.org/1999/xlink" width="500" zoomAndPan="magnify" viewBox="0 0 375 374.999991" height="500" preserveAspectRatio="xMidYMid meet" version="1.0"><defs><clipPath id="77645f4c78"><path d="M 61.550781 61.550781 L 313.449219 61.550781 L 313.449219 313.449219 L 61.550781 313.449219 Z M 61.550781 61.550781 " clip-rule="nonzero"/></clipPath><clipPath id="cf811309e0"><path d="M 187.5 61.550781 C 117.941406 61.550781 61.550781 117.941406 61.550781 187.5 C 61.550781 257.058594 117.941406 313.449219 187.5 313.449219 C 257.058594 313.449219 313.449219 257.058594 313.449219 187.5 C 313.449219 117.941406 257.058594 61.550781 187.5 61.550781 Z M 187.5 61.550781 " clip-rule="nonzero"/></clipPath><clipPath id="3c623a7344"><path d="M 0.550781 0.550781 L 252.449219 0.550781 L 252.449219 252.449219 L 0.550781 252.449219 Z M 0.550781 0.550781 " clip-rule="nonzero"/></clipPath><clipPath id="5caf7c5515"><path d="M 126.5 0.550781 C 56.941406 0.550781 0.550781 56.941406 0.550781 126.5 C 0.550781 196.058594 56.941406 252.449219 126.5 252.449219 C 196.058594 252.449219 252.449219 196.058594 252.449219 126.5 C 252.449219 56.941406 196.058594 0.550781 126.5 0.550781 Z M 126.5 0.550781 " clip-rule="nonzero"/></clipPath><clipPath id="e5c41cb552"><rect x="0" width="253" y="0" height="253"/></clipPath><clipPath id="cde2936212"><path d="M 61.550781 61.550781 L 313.445312 61.550781 L 313.445312 313.445312 L 61.550781 313.445312 Z M 61.550781 61.550781 " clip-rule="nonzero"/></clipPath><clipPath id="cf3e90ea0c"><path d="M 187.5 61.550781 C 117.9375 61.550781 61.550781 117.9375 61.550781 187.5 C 61.550781 257.058594 117.9375 313.445312 187.5 313.445312 C 257.058594 313.445312 313.445312 257.058594 313.445312 187.5 C 313.445312 117.9375 257.058594 61.550781 187.5 61.550781 Z M 187.5 61.550781 " clip-rule="nonzero"/></clipPath><clipPath id="b5f13bacd5"><path d="M 93.039062 93.039062 L 281.960938 93.039062 L 281.960938 281.960938 L 93.039062 281.960938 Z M 93.039062 93.039062 " clip-rule="nonzero"/></clipPath><clipPath id="4a6d030594"><path d="M 187.5 93.039062 C 135.332031 93.039062 93.039062 135.332031 93.039062 187.5 C 93.039062 239.667969 135.332031 281.960938 187.5 281.960938 C 239.667969 281.960938 281.960938 239.667969 281.960938 187.5 C 281.960938 135.332031 239.667969 93.039062 187.5 93.039062 Z M 187.5 93.039062 " clip-rule="nonzero"/></clipPath><clipPath id="573e5ffd99"><path d="M 0.0390625 0.0390625 L 188.960938 0.0390625 L 188.960938 188.960938 L 0.0390625 188.960938 Z M 0.0390625 0.0390625 " clip-rule="nonzero"/></clipPath><clipPath id="8b5f52f078"><path d="M 94.5 0.0390625 C 42.332031 0.0390625 0.0390625 42.332031 0.0390625 94.5 C 0.0390625 146.667969 42.332031 188.960938 94.5 188.960938 C 146.667969 188.960938 188.960938 146.667969 188.960938 94.5 C 188.960938 42.332031 146.667969 0.0390625 94.5 0.0390625 Z M 94.5 0.0390625 " clip-rule="nonzero"/></clipPath><clipPath id="243ed6f66d"><rect x="0" width="189" y="0" height="189"/></clipPath><clipPath id="f12a7a8c63"><path d="M 93.039062 93.039062 L 281.957031 93.039062 L 281.957031 281.957031 L 93.039062 281.957031 Z M 93.039062 93.039062 " clip-rule="nonzero"/></clipPath><clipPath id="7f3570794e"><path d="M 187.5 93.039062 C 135.332031 93.039062 93.039062 135.332031 93.039062 187.5 C 93.039062 239.667969 135.332031 281.957031 187.5 281.957031 C 239.667969 281.957031 281.957031 239.667969 281.957031 187.5 C 281.957031 135.332031 239.667969 93.039062 187.5 93.039062 Z M 187.5 93.039062 " clip-rule="nonzero"/></clipPath><clipPath id="2b3775cfa3"><path d="M 120.171875 56.589844 L 254.660156 56.589844 L 254.660156 176.761719 L 120.171875 176.761719 Z M 120.171875 56.589844 " clip-rule="nonzero"/></clipPath><clipPath id="2f0531e9b2"><path d="M 178.179688 171.230469 L 121.820312 72.859375 C 119.894531 69.496094 119.90625 65.363281 121.847656 62.007812 C 123.792969 58.65625 127.375 56.589844 131.25 56.589844 L 243.75 56.589844 C 247.625 56.589844 251.207031 58.65625 253.152344 62.007812 C 255.09375 65.363281 255.105469 69.496094 253.179688 72.859375 L 196.820312 171.230469 C 194.90625 174.570312 191.351562 176.632812 187.5 176.632812 C 183.648438 176.632812 180.09375 174.570312 178.179688 171.230469 Z M 178.179688 171.230469 " clip-rule="nonzero"/></clipPath><clipPath id="aec318d1c9"><path d="M 0.171875 0.589844 L 134.660156 0.589844 L 134.660156 120.640625 L 0.171875 120.640625 Z M 0.171875 0.589844 " clip-rule="nonzero"/></clipPath><clipPath id="e99da2ef27"><path d="M 58.179688 115.230469 L 1.820312 16.859375 C -0.105469 13.496094 -0.09375 9.363281 1.847656 6.007812 C 3.792969 2.65625 7.375 0.589844 11.25 0.589844 L 123.75 0.589844 C 127.625 0.589844 131.207031 2.65625 133.152344 6.007812 C 135.09375 9.363281 135.105469 13.496094 133.179688 16.859375 L 76.820312 115.230469 C 74.90625 118.570312 71.351562 120.632812 67.5 120.632812 C 63.648438 120.632812 60.09375 118.570312 58.179688 115.230469 Z M 58.179688 115.230469 " clip-rule="nonzero"/></clipPath><clipPath id="bfbd2567b4"><rect x="0" width="135" y="0" height="121"/></clipPath><clipPath id="c2bfa2bc58"><path d="M 195.171875 187.5 L 329.660156 187.5 L 329.660156 307.671875 L 195.171875 307.671875 Z M 195.171875 187.5 " clip-rule="nonzero"/></clipPath><clipPath id="046b54f7a5"><path d="M 253.179688 302.140625 L 196.820312 203.769531 C 194.894531 200.40625 194.90625 196.269531 196.847656 192.917969 C 198.792969 189.5625 202.375 187.5 206.25 187.5 L 318.75 187.5 C 322.625 187.5 326.207031 189.5625 328.152344 192.917969 C 330.09375 196.269531 330.105469 200.40625 328.179688 203.769531 L 271.820312 302.140625 C 269.90625 305.480469 266.351562 307.542969 262.5 307.542969 C 258.648438 307.542969 255.09375 305.480469 253.179688 302.140625 Z M 253.179688 302.140625 " clip-rule="nonzero"/></clipPath><clipPath id="084b311f4a"><path d="M 0.171875 0.5 L 134.660156 0.5 L 134.660156 120.671875 L 0.171875 120.671875 Z M 0.171875 0.5 " clip-rule="nonzero"/></clipPath><clipPath id="4b90857f53"><path d="M 58.179688 115.140625 L 1.820312 16.769531 C -0.105469 13.40625 -0.09375 9.269531 1.847656 5.917969 C 3.792969 2.5625 7.375 0.5 11.25 0.5 L 123.75 0.5 C 127.625 0.5 131.207031 2.5625 133.152344 5.917969 C 135.09375 9.269531 135.105469 13.40625 133.179688 16.769531 L 76.820312 115.140625 C 74.90625 118.480469 71.351562 120.542969 67.5 120.542969 C 63.648438 120.542969 60.09375 118.480469 58.179688 115.140625 Z M 58.179688 115.140625 " clip-rule="nonzero"/></clipPath><clipPath id="7ce57005a9"><rect x="0" width="135" y="0" height="121"/></clipPath><clipPath id="6c15dd84f8"><path d="M 45.171875 187.5 L 179.660156 187.5 L 179.660156 307.671875 L 45.171875 307.671875 Z M 45.171875 187.5 " clip-rule="nonzero"/></clipPath><clipPath id="3b850a9d0d"><path d="M 103.179688 302.140625 L 46.820312 203.769531 C 44.894531 200.40625 44.90625 196.269531 46.847656 192.917969 C 48.792969 189.5625 52.375 187.5 56.25 187.5 L 168.75 187.5 C 172.625 187.5 176.207031 189.5625 178.152344 192.917969 C 180.09375 196.269531 180.105469 200.40625 178.179688 203.769531 L 121.820312 302.140625 C 119.90625 305.480469 116.351562 307.542969 112.5 307.542969 C 108.648438 307.542969 105.09375 305.480469 103.179688 302.140625 Z M 103.179688 302.140625 " clip-rule="nonzero"/></clipPath><clipPath id="721165a0e0"><path d="M 0.171875 0.5 L 134.660156 0.5 L 134.660156 120.671875 L 0.171875 120.671875 Z M 0.171875 0.5 " clip-rule="nonzero"/></clipPath><clipPath id="9ef409fbf6"><path d="M 58.179688 115.140625 L 1.820312 16.769531 C -0.105469 13.40625 -0.09375 9.269531 1.847656 5.917969 C 3.792969 2.5625 7.375 0.5 11.25 0.5 L 123.75 0.5 C 127.625 0.5 131.207031 2.5625 133.152344 5.917969 C 135.09375 9.269531 135.105469 13.40625 133.179688 16.769531 L 76.820312 115.140625 C 74.90625 118.480469 71.351562 120.542969 67.5 120.542969 C 63.648438 120.542969 60.09375 118.480469 58.179688 115.140625 Z M 58.179688 115.140625 " clip-rule="nonzero"/></clipPath><clipPath id="33045a3a1c"><rect x="0" width="135" y="0" height="121"/></clipPath><clipPath id="b24b7b19d8"><path d="M 89.636719 203.335938 L 135.386719 203.335938 L 135.386719 258.835938 L 89.636719 258.835938 Z M 89.636719 203.335938 " clip-rule="nonzero"/></clipPath><clipPath id="6c5a595aca"><path d="M 239.179688 230 L 285.679688 230 L 285.679688 258.835938 L 239.179688 258.835938 Z M 239.179688 230 " clip-rule="nonzero"/></clipPath><clipPath id="95d99c9c8e"><path d="M 248 203.335938 L 275 203.335938 L 275 233 L 248 233 Z M 248 203.335938 " clip-rule="nonzero"/></clipPath><clipPath id="6713d9956e"><path d="M 156.117188 73.402344 L 219 73.402344 L 219 122 L 156.117188 122 Z M 156.117188 73.402344 " clip-rule="nonzero"/></clipPath><clipPath id="2330f2dc69"><path d="M 154.890625 154.890625 L 220.109375 154.890625 L 220.109375 220.109375 L 154.890625 220.109375 Z M 154.890625 154.890625 " clip-rule="nonzero"/></clipPath><clipPath id="5870eb1312"><path d="M 187.5 154.890625 C 169.492188 154.890625 154.890625 169.492188 154.890625 187.5 C 154.890625 205.507812 169.492188 220.109375 187.5 220.109375 C 205.507812 220.109375 220.109375 205.507812 220.109375 187.5 C 220.109375 169.492188 205.507812 154.890625 187.5 154.890625 Z M 187.5 154.890625 " clip-rule="nonzero"/></clipPath><clipPath id="9818e75c02"><path d="M 0.890625 0.890625 L 66.109375 0.890625 L 66.109375 66.109375 L 0.890625 66.109375 Z M 0.890625 0.890625 " clip-rule="nonzero"/></clipPath><clipPath id="dd261ca043"><path d="M 33.5 0.890625 C 15.492188 0.890625 0.890625 15.492188 0.890625 33.5 C 0.890625 51.507812 15.492188 66.109375 33.5 66.109375 C 51.507812 66.109375 66.109375 51.507812 66.109375 33.5 C 66.109375 15.492188 51.507812 0.890625 33.5 0.890625 Z M 33.5 0.890625 " clip-rule="nonzero"/></clipPath><radialGradient gradientTransform="matrix(1, 0, 0, 1, 0.890595, 0.89059)" gradientUnits="userSpaceOnUse" r="46.116572" cx="32.609401" id="d83eca77aa" cy="32.609401" fx="32.609401" fy="32.609401"><stop stop-opacity="1" stop-color="rgb(100%, 86.941528%, 34.881592%)" offset="0"/><stop stop-opacity="1" stop-color="rgb(100%, 86.647034%, 34.83429%)" offset="0.0078125"/><stop stop-opacity="1" stop-color="rgb(100%, 86.29303%, 34.779358%)" offset="0.0195312"/><stop stop-opacity="1" stop-color="rgb(100%, 85.939026%, 34.724426%)" offset="0.03125"/><stop stop-opacity="1" stop-color="rgb(100%, 85.585022%, 34.669495%)" offset="0.0429688"/><stop stop-opacity="1" stop-color="rgb(100%, 85.231018%, 34.614563%)" offset="0.0546875"/><stop stop-opacity="1" stop-color="rgb(100%, 84.877014%, 34.559631%)" offset="0.0664062"/><stop stop-opacity="1" stop-color="rgb(100%, 84.52301%, 34.5047%)" offset="0.078125"/><stop stop-opacity="1" stop-color="rgb(100%, 84.169006%, 34.449768%)" offset="0.0898438"/><stop stop-opacity="1" stop-color="rgb(100%, 83.815002%, 34.394836%)" offset="0.101562"/><stop stop-opacity="1" stop-color="rgb(100%, 83.460999%, 34.339905%)" offset="0.113281"/><stop stop-opacity="1" stop-color="rgb(100%, 83.106995%, 34.283447%)" offset="0.125"/><stop stop-opacity="1" stop-color="rgb(100%, 82.752991%, 34.228516%)" offset="0.136719"/><stop stop-opacity="1" stop-color="rgb(100%, 82.398987%, 34.173584%)" offset="0.148438"/><stop stop-opacity="1" stop-color="rgb(100%, 82.044983%, 34.118652%)" offset="0.160156"/><stop stop-opacity="1" stop-color="rgb(100%, 81.690979%, 34.063721%)" offset="0.171875"/><stop stop-opacity="1" stop-color="rgb(100%, 81.336975%, 34.008789%)" offset="0.183594"/><stop stop-opacity="1" stop-color="rgb(100%, 80.984497%, 33.953857%)" offset="0.195312"/><stop stop-opacity="1" stop-color="rgb(100%, 80.630493%, 33.898926%)" offset="0.207031"/><stop stop-opacity="1" stop-color="rgb(100%, 80.276489%, 33.843994%)" offset="0.21875"/><stop stop-opacity="1" stop-color="rgb(100%, 79.922485%, 33.789062%)" offset="0.230469"/><stop stop-opacity="1" stop-color="rgb(100%, 79.568481%, 33.732605%)" offset="0.242188"/><stop stop-opacity="1" stop-color="rgb(100%, 79.272461%, 33.686829%)" offset="0.253906"/><stop stop-opacity="1" stop-color="rgb(100%, 79.037476%, 33.650208%)" offset="0.261719"/><stop stop-opacity="1" stop-color="rgb(100%, 78.800964%, 33.613586%)" offset="0.269531"/><stop stop-opacity="1" stop-color="rgb(100%, 78.564453%, 33.576965%)" offset="0.277344"/><stop stop-opacity="1" stop-color="rgb(100%, 78.329468%, 33.540344%)" offset="0.285156"/><stop stop-opacity="1" stop-color="rgb(100%, 78.092957%, 33.503723%)" offset="0.292969"/><stop stop-opacity="1" stop-color="rgb(100%, 77.856445%, 33.467102%)" offset="0.300781"/><stop stop-opacity="1" stop-color="rgb(100%, 77.62146%, 33.430481%)" offset="0.308594"/><stop stop-opacity="1" stop-color="rgb(100%, 77.384949%, 33.39386%)" offset="0.316406"/><stop stop-opacity="1" stop-color="rgb(100%, 77.149963%, 33.357239%)" offset="0.324219"/><stop stop-opacity="1" stop-color="rgb(100%, 76.913452%, 33.320618%)" offset="0.332031"/><stop stop-opacity="1" stop-color="rgb(100%, 76.676941%, 33.283997%)" offset="0.339844"/><stop stop-opacity="1" stop-color="rgb(100%, 76.441956%, 33.247375%)" offset="0.347656"/><stop stop-opacity="1" stop-color="rgb(100%, 76.205444%, 33.210754%)" offset="0.355469"/><stop stop-opacity="1" stop-color="rgb(100%, 75.970459%, 33.174133%)" offset="0.363281"/><stop stop-opacity="1" stop-color="rgb(100%, 75.733948%, 33.135986%)" offset="0.371094"/><stop stop-opacity="1" stop-color="rgb(100%, 75.497437%, 33.099365%)" offset="0.378906"/><stop stop-opacity="1" stop-color="rgb(100%, 75.262451%, 33.062744%)" offset="0.386719"/><stop stop-opacity="1" stop-color="rgb(100%, 75.02594%, 33.026123%)" offset="0.394531"/><stop stop-opacity="1" stop-color="rgb(100%, 74.789429%, 32.989502%)" offset="0.402344"/><stop stop-opacity="1" stop-color="rgb(100%, 74.554443%, 32.952881%)" offset="0.410156"/><stop stop-opacity="1" stop-color="rgb(100%, 74.317932%, 32.91626%)" offset="0.417969"/><stop stop-opacity="1" stop-color="rgb(100%, 74.082947%, 32.879639%)" offset="0.425781"/><stop stop-opacity="1" stop-color="rgb(100%, 73.846436%, 32.843018%)" offset="0.433594"/><stop stop-opacity="1" stop-color="rgb(100%, 73.609924%, 32.806396%)" offset="0.441406"/><stop stop-opacity="1" stop-color="rgb(100%, 73.374939%, 32.769775%)" offset="0.449219"/><stop stop-opacity="1" stop-color="rgb(100%, 73.138428%, 32.733154%)" offset="0.457031"/><stop stop-opacity="1" stop-color="rgb(100%, 72.901917%, 32.696533%)" offset="0.464844"/><stop stop-opacity="1" stop-color="rgb(100%, 72.666931%, 32.659912%)" offset="0.472656"/><stop stop-opacity="1" stop-color="rgb(100%, 72.43042%, 32.623291%)" offset="0.480469"/><stop stop-opacity="1" stop-color="rgb(100%, 72.195435%, 32.58667%)" offset="0.488281"/><stop stop-opacity="1" stop-color="rgb(100%, 71.958923%, 32.548523%)" offset="0.496094"/><stop stop-opacity="1" stop-color="rgb(100%, 71.664429%, 32.502747%)" offset="0.503906"/><stop stop-opacity="1" stop-color="rgb(100%, 71.310425%, 32.447815%)" offset="0.515625"/><stop stop-opacity="1" stop-color="rgb(100%, 70.956421%, 32.392883%)" offset="0.527344"/><stop stop-opacity="1" stop-color="rgb(100%, 70.602417%, 32.337952%)" offset="0.539062"/><stop stop-opacity="1" stop-color="rgb(100%, 70.248413%, 32.28302%)" offset="0.550781"/><stop stop-opacity="1" stop-color="rgb(100%, 69.894409%, 32.228088%)" offset="0.5625"/><stop stop-opacity="1" stop-color="rgb(100%, 69.540405%, 32.173157%)" offset="0.574219"/><stop stop-opacity="1" stop-color="rgb(100%, 69.186401%, 32.118225%)" offset="0.585938"/><stop stop-opacity="1" stop-color="rgb(100%, 68.832397%, 32.063293%)" offset="0.597656"/><stop stop-opacity="1" stop-color="rgb(100%, 68.478394%, 32.006836%)" offset="0.609375"/><stop stop-opacity="1" stop-color="rgb(100%, 68.125916%, 31.951904%)" offset="0.621094"/><stop stop-opacity="1" stop-color="rgb(100%, 67.829895%, 31.906128%)" offset="0.632812"/><stop stop-opacity="1" stop-color="rgb(100%, 67.593384%, 31.869507%)" offset="0.640625"/><stop stop-opacity="1" stop-color="rgb(100%, 67.358398%, 31.832886%)" offset="0.648438"/><stop stop-opacity="1" stop-color="rgb(100%, 67.121887%, 31.796265%)" offset="0.65625"/><stop stop-opacity="1" stop-color="rgb(100%, 66.885376%, 31.759644%)" offset="0.664062"/><stop stop-opacity="1" stop-color="rgb(100%, 66.650391%, 31.723022%)" offset="0.671875"/><stop stop-opacity="1" stop-color="rgb(100%, 66.413879%, 31.686401%)" offset="0.679688"/><stop stop-opacity="1" stop-color="rgb(100%, 66.178894%, 31.64978%)" offset="0.6875"/><stop stop-opacity="1" stop-color="rgb(100%, 65.942383%, 31.613159%)" offset="0.695312"/><stop stop-opacity="1" stop-color="rgb(100%, 65.705872%, 31.576538%)" offset="0.703125"/><stop stop-opacity="1" stop-color="rgb(100%, 65.470886%, 31.539917%)" offset="0.710938"/><stop stop-opacity="1" stop-color="rgb(100%, 65.234375%, 31.503296%)" offset="0.71875"/><stop stop-opacity="1" stop-color="rgb(100%, 64.997864%, 31.466675%)" offset="0.726562"/><stop stop-opacity="1" stop-color="rgb(100%, 64.762878%, 31.428528%)" offset="0.734375"/><stop stop-opacity="1" stop-color="rgb(100%, 64.526367%, 31.391907%)" offset="0.742188"/><stop stop-opacity="1" stop-color="rgb(100%, 64.291382%, 31.355286%)" offset="0.75"/><stop stop-opacity="1" stop-color="rgb(100%, 63.996887%, 31.309509%)" offset="0.757812"/><stop stop-opacity="1" stop-color="rgb(100%, 63.642883%, 31.254578%)" offset="0.769531"/><stop stop-opacity="1" stop-color="rgb(100%, 63.288879%, 31.199646%)" offset="0.78125"/><stop stop-opacity="1" stop-color="rgb(100%, 62.934875%, 31.144714%)" offset="0.792969"/><stop stop-opacity="1" stop-color="rgb(100%, 62.580872%, 31.089783%)" offset="0.804688"/><stop stop-opacity="1" stop-color="rgb(100%, 62.284851%, 31.044006%)" offset="0.816406"/><stop stop-opacity="1" stop-color="rgb(100%, 62.049866%, 31.007385%)" offset="0.824219"/><stop stop-opacity="1" stop-color="rgb(100%, 61.813354%, 30.970764%)" offset="0.832031"/><stop stop-opacity="1" stop-color="rgb(100%, 61.576843%, 30.934143%)" offset="0.839844"/><stop stop-opacity="1" stop-color="rgb(100%, 61.341858%, 30.897522%)" offset="0.847656"/><stop stop-opacity="1" stop-color="rgb(100%, 61.105347%, 30.859375%)" offset="0.855469"/><stop stop-opacity="1" stop-color="rgb(100%, 60.870361%, 30.822754%)" offset="0.863281"/><stop stop-opacity="1" stop-color="rgb(100%, 60.63385%, 30.786133%)" offset="0.871094"/><stop stop-opacity="1" stop-color="rgb(100%, 60.339355%, 30.740356%)" offset="0.878906"/><stop stop-opacity="1" stop-color="rgb(100%, 59.985352%, 30.685425%)" offset="0.890625"/><stop stop-opacity="1" stop-color="rgb(100%, 59.631348%, 30.630493%)" offset="0.902344"/><stop stop-opacity="1" stop-color="rgb(100%, 59.336853%, 30.584717%)" offset="0.914062"/><stop stop-opacity="1" stop-color="rgb(100%, 59.100342%, 30.548096%)" offset="0.921875"/><stop stop-opacity="1" stop-color="rgb(100%, 58.863831%, 30.511475%)" offset="0.929688"/><stop stop-opacity="1" stop-color="rgb(100%, 58.628845%, 30.474854%)" offset="0.9375"/><stop stop-opacity="1" stop-color="rgb(100%, 58.334351%, 30.429077%)" offset="0.945312"/><stop stop-opacity="1" stop-color="rgb(100%, 58.03833%, 30.383301%)" offset="0.957031"/><stop stop-opacity="1" stop-color="rgb(100%, 57.801819%, 30.34668%)" offset="0.964844"/><stop stop-opacity="1" stop-color="rgb(100%, 57.507324%, 30.300903%)" offset="0.972656"/><stop stop-opacity="1" stop-color="rgb(100%, 57.21283%, 30.253601%)" offset="0.984375"/><stop stop-opacity="1" stop-color="rgb(100%, 56.976318%, 30.21698%)" offset="0.992188"/><stop stop-opacity="1" stop-color="rgb(100%, 56.858826%, 30.198669%)" offset="1"/></radialGradient><clipPath id="e6a7210957"><rect x="0" width="67" y="0" height="67"/></clipPath></defs><g clip-path="url(#77645f4c78)"><g clip-path="url(#cf811309e0)"><g transform="matrix(1, 0, 0, 1, 61, 61)"><g clip-path="url(#e5c41cb552)"><g clip-path="url(#3c623a7344)"><g clip-path="url(#5caf7c5515)"><path fill="#ffffff" d="M 0.550781 0.550781 L 252.449219 0.550781 L 252.449219 252.449219 L 0.550781 252.449219 Z M 0.550781 0.550781 " fill-opacity="1" fill-rule="nonzero"/></g></g></g></g></g></g><g clip-path="url(#cde2936212)"><g clip-path="url(#cf3e90ea0c)"><path stroke-linecap="butt" transform="matrix(0.75, 0, 0, 0.75, 61.550883, 61.550878)" fill="none" stroke-linejoin="miter" d="M 167.932167 -0.000129478 C 75.182161 -0.000129478 -0.000135478 75.182167 -0.000135478 167.932173 C -0.000135478 260.676971 75.182161 335.859268 167.932167 335.859268 C 260.676965 335.859268 335.859262 260.676971 335.859262 167.932173 C 335.859262 75.182167 260.676965 -0.000129478 167.932167 -0.000129478 Z M 167.932167 -0.000129478 " stroke="#ff914d" stroke-width="100" stroke-opacity="1" stroke-miterlimit="4"/></g></g><g clip-path="url(#b5f13bacd5)"><g clip-path="url(#4a6d030594)"><g transform="matrix(1, 0, 0, 1, 93, 93)"><g clip-path="url(#243ed6f66d)"><g clip-path="url(#573e5ffd99)"><g clip-path="url(#8b5f52f078)"><path fill="#ffffff" d="M 0.0390625 0.0390625 L 188.960938 0.0390625 L 188.960938 188.960938 L 0.0390625 188.960938 Z M 0.0390625 0.0390625 " fill-opacity="1" fill-rule="nonzero"/></g></g></g></g></g></g><g clip-path="url(#f12a7a8c63)"><g clip-path="url(#7f3570794e)"><path stroke-linecap="butt" transform="matrix(0.75, 0, 0, 0.75, 93.039534, 93.039529)" fill="none" stroke-linejoin="miter" d="M 125.947297 -0.000622121 C 56.390001 -0.000622121 -0.000628121 56.390007 -0.000628121 125.947303 C -0.000628121 195.504599 56.390001 251.890019 125.947297 251.890019 C 195.504593 251.890019 251.890013 195.504599 251.890013 125.947303 C 251.890013 56.390007 195.504593 -0.000622121 125.947297 -0.000622121 Z M 125.947297 -0.000622121 " stroke="#ffde59" stroke-width="100" stroke-opacity="1" stroke-miterlimit="4"/></g></g><g clip-path="url(#2b3775cfa3)"><g clip-path="url(#2f0531e9b2)"><g transform="matrix(1, 0, 0, 1, 120, 56)"><g clip-path="url(#bfbd2567b4)"><g clip-path="url(#aec318d1c9)"><g clip-path="url(#e99da2ef27)"><path fill="#ff751f" d="M -7.5 0.589844 L 142.328125 0.589844 L 142.328125 131.5 L -7.5 131.5 Z M -7.5 0.589844 " fill-opacity="1" fill-rule="nonzero"/></g></g></g></g></g></g><g clip-path="url(#c2bfa2bc58)"><g clip-path="url(#046b54f7a5)"><g transform="matrix(1, 0, 0, 1, 195, 187)"><g clip-path="url(#7ce57005a9)"><g clip-path="url(#084b311f4a)"><g clip-path="url(#4b90857f53)"><path fill="#ff751f" d="M -7.5 0.5 L 142.328125 0.5 L 142.328125 131.410156 L -7.5 131.410156 Z M -7.5 0.5 " fill-opacity="1" fill-rule="nonzero"/></g></g></g></g></g></g><g clip-path="url(#6c15dd84f8)"><g clip-path="url(#3b850a9d0d)"><g transform="matrix(1, 0, 0, 1, 45, 187)"><g clip-path="url(#33045a3a1c)"><g clip-path="url(#721165a0e0)"><g clip-path="url(#9ef409fbf6)"><path fill="#ff751f" d="M -7.5 0.5 L 142.328125 0.5 L 142.328125 131.410156 L -7.5 131.410156 Z M -7.5 0.5 " fill-opacity="1" fill-rule="nonzero"/></g></g></g></g></g></g><g clip-path="url(#b24b7b19d8)"><path fill="#ffffff" d="M 130.335938 227.21875 C 129.753906 227.515625 129.117188 227.800781 128.445312 228.066406 C 128.316406 228.121094 128.179688 228.144531 128.050781 228.144531 C 127.617188 228.144531 127.210938 227.882812 127.042969 227.453125 C 126.824219 226.894531 127.097656 226.265625 127.652344 226.046875 C 128.261719 225.804688 128.835938 225.546875 129.355469 225.28125 C 129.886719 225.007812 130.539062 225.21875 130.808594 225.753906 C 131.078125 226.289062 130.867188 226.945312 130.335938 227.21875 M 103.714844 228.894531 C 103.617188 229.414062 103.164062 229.773438 102.65625 229.773438 C 102.589844 229.773438 102.519531 229.765625 102.449219 229.753906 C 101.625 229.589844 100.816406 229.40625 100.050781 229.207031 C 99.472656 229.054688 99.125 228.460938 99.277344 227.878906 C 99.425781 227.300781 100.015625 226.949219 100.59375 227.101562 C 101.320312 227.292969 102.082031 227.464844 102.863281 227.617188 C 103.449219 227.734375 103.832031 228.304688 103.714844 228.894531 M 97.929688 227.453125 C 97.761719 227.882812 97.355469 228.144531 96.925781 228.144531 C 96.792969 228.144531 96.660156 228.121094 96.527344 228.066406 C 95.855469 227.800781 95.222656 227.515625 94.640625 227.21875 C 94.105469 226.945312 93.894531 226.289062 94.164062 225.753906 C 94.4375 225.21875 95.085938 225.007812 95.617188 225.28125 C 96.140625 225.546875 96.714844 225.804688 97.320312 226.046875 C 97.875 226.265625 98.148438 226.894531 97.929688 227.453125 M 129.917969 221.5 C 132.191406 220.488281 133.996094 219.296875 135.285156 217.984375 L 135.285156 226.273438 C 134.667969 228.234375 132.484375 230.152344 129.078125 231.667969 C 124.664062 233.636719 118.773438 234.71875 112.488281 234.71875 C 106.203125 234.71875 100.308594 233.636719 95.894531 231.667969 C 92.492188 230.152344 90.304688 228.234375 89.6875 226.273438 L 89.6875 217.984375 C 90.980469 219.296875 92.785156 220.488281 95.054688 221.5 C 99.730469 223.582031 105.921875 224.730469 112.488281 224.730469 C 119.054688 224.730469 125.246094 223.582031 129.917969 221.5 Z M 128.226562 205.859375 C 132.789062 207.621094 135.300781 210.109375 135.300781 212.863281 C 135.300781 215.617188 132.789062 218.105469 128.226562 219.867188 C 124.007812 221.5 118.417969 222.394531 112.488281 222.394531 C 106.558594 222.394531 100.96875 221.5 96.746094 219.867188 C 92.183594 218.105469 89.671875 215.617188 89.671875 212.863281 C 89.671875 210.109375 92.183594 207.621094 96.746094 205.859375 C 100.96875 204.230469 106.558594 203.332031 112.488281 203.332031 C 118.417969 203.332031 124.007812 204.230469 128.226562 205.859375 Z M 130.808594 237.867188 C 131.078125 238.402344 130.867188 239.054688 130.335938 239.328125 C 129.753906 239.628906 129.117188 239.914062 128.445312 240.179688 C 128.316406 240.230469 128.183594 240.253906 128.050781 240.253906 C 127.617188 240.253906 127.210938 239.992188 127.042969 239.566406 C 126.824219 239.007812 127.097656 238.375 127.652344 238.15625 C 128.261719 237.914062 128.832031 237.660156 129.355469 237.390625 C 129.886719 237.117188 130.539062 237.332031 130.808594 237.867188 M 103.714844 241.003906 C 103.617188 241.523438 103.164062 241.882812 102.65625 241.882812 C 102.589844 241.882812 102.519531 241.878906 102.449219 241.863281 C 101.625 241.703125 100.816406 241.519531 100.050781 241.316406 C 99.472656 241.167969 99.125 240.574219 99.277344 239.992188 C 99.425781 239.410156 100.015625 239.0625 100.59375 239.214844 C 101.320312 239.402344 102.082031 239.578125 102.863281 239.730469 C 103.449219 239.84375 103.832031 240.417969 103.714844 241.003906 M 97.929688 239.566406 C 97.761719 239.992188 97.355469 240.253906 96.925781 240.253906 C 96.792969 240.253906 96.660156 240.230469 96.527344 240.179688 C 95.859375 239.914062 95.222656 239.628906 94.640625 239.328125 C 94.105469 239.054688 93.894531 238.402344 94.164062 237.867188 C 94.4375 237.332031 95.085938 237.117188 95.617188 237.390625 C 96.140625 237.660156 96.714844 237.914062 97.320312 238.15625 C 97.875 238.375 98.148438 239.007812 97.929688 239.566406 M 112.488281 237.003906 C 105.921875 237.003906 99.730469 235.859375 95.054688 233.777344 C 92.785156 232.765625 90.980469 231.574219 89.6875 230.261719 L 89.6875 238.550781 C 90.304688 240.511719 92.492188 242.429688 95.894531 243.945312 C 100.308594 245.914062 106.203125 246.996094 112.488281 246.996094 C 118.773438 246.996094 124.664062 245.914062 129.078125 243.945312 C 132.484375 242.429688 134.667969 240.511719 135.285156 238.550781 L 135.285156 230.261719 C 133.996094 231.574219 132.191406 232.765625 129.917969 233.777344 C 125.246094 235.859375 119.054688 237.003906 112.488281 237.003906 M 130.808594 250.398438 C 131.078125 250.933594 130.867188 251.589844 130.335938 251.859375 C 129.753906 252.160156 129.117188 252.445312 128.445312 252.710938 C 128.316406 252.761719 128.183594 252.789062 128.050781 252.789062 C 127.617188 252.789062 127.210938 252.527344 127.042969 252.097656 C 126.824219 251.539062 127.097656 250.910156 127.652344 250.6875 C 128.261719 250.449219 128.835938 250.191406 129.355469 249.921875 C 129.886719 249.652344 130.539062 249.863281 130.808594 250.398438 M 103.714844 253.539062 C 103.617188 254.054688 103.164062 254.417969 102.65625 254.417969 C 102.589844 254.417969 102.519531 254.410156 102.449219 254.394531 C 101.625 254.234375 100.816406 254.050781 100.050781 253.851562 C 99.472656 253.699219 99.125 253.105469 99.277344 252.523438 C 99.425781 251.945312 100.015625 251.59375 100.59375 251.746094 C 101.320312 251.9375 102.082031 252.109375 102.863281 252.261719 C 103.449219 252.378906 103.832031 252.949219 103.714844 253.539062 M 97.929688 252.097656 C 97.761719 252.527344 97.355469 252.789062 96.925781 252.789062 C 96.792969 252.789062 96.660156 252.761719 96.527344 252.710938 C 95.855469 252.445312 95.222656 252.160156 94.640625 251.859375 C 94.105469 251.589844 93.894531 250.933594 94.164062 250.398438 C 94.4375 249.863281 95.085938 249.652344 95.617188 249.921875 C 96.140625 250.191406 96.710938 250.449219 97.320312 250.6875 C 97.875 250.910156 98.148438 251.539062 97.929688 252.097656 M 112.488281 249.085938 C 105.921875 249.085938 99.730469 247.9375 95.054688 245.855469 C 92.785156 244.84375 90.980469 243.652344 89.6875 242.339844 L 89.6875 250.628906 C 90.304688 252.589844 92.492188 254.507812 95.894531 256.023438 C 100.308594 257.992188 106.203125 259.074219 112.488281 259.074219 C 118.773438 259.074219 124.664062 257.992188 129.078125 256.023438 C 132.484375 254.507812 134.667969 252.589844 135.285156 250.628906 L 135.285156 242.339844 C 133.996094 243.652344 132.191406 244.84375 129.917969 245.855469 C 125.246094 247.9375 119.054688 249.085938 112.488281 249.085938 " fill-opacity="1" fill-rule="evenodd"/></g><g clip-path="url(#6c5a595aca)"><path fill="#ffffff" d="M 277.964844 232.507812 C 274.882812 230.3125 271.042969 230.109375 267.730469 231.8125 C 264.308594 233.644531 259.832031 233.722656 256.351562 232.007812 C 252.730469 230.292969 248.566406 230.964844 245.496094 233.75 C 241.664062 237.222656 239.203125 242.589844 239.203125 248.613281 C 239.203125 259.089844 246.636719 258.371094 255.804688 258.371094 L 269.195312 258.382812 C 278.367188 258.382812 285.796875 259.089844 285.796875 248.613281 C 285.796875 241.816406 282.667969 235.859375 277.964844 232.507812 Z M 277.964844 232.507812 " fill-opacity="1" fill-rule="nonzero"/></g><g clip-path="url(#95d99c9c8e)"><path fill="#ffffff" d="M 261.832031 232.253906 C 268.988281 232.253906 274.808594 225.765625 274.808594 217.792969 C 274.808594 209.820312 268.988281 203.332031 261.832031 203.332031 C 254.679688 203.332031 248.859375 209.820312 248.859375 217.792969 C 248.859375 225.765625 254.679688 232.253906 261.832031 232.253906 Z M 261.832031 232.253906 " fill-opacity="1" fill-rule="nonzero"/></g><g clip-path="url(#6713d9956e)"><path fill="#ffffff" d="M 162.472656 79.316406 C 162.914062 79.316406 163.351562 79.367188 163.785156 79.46875 C 164.21875 79.570312 164.632812 79.71875 165.03125 79.914062 C 165.429688 80.109375 165.800781 80.351562 166.144531 80.632812 C 166.488281 80.914062 166.792969 81.230469 167.0625 81.582031 C 167.332031 81.933594 167.558594 82.3125 167.742188 82.71875 C 167.925781 83.121094 168.0625 83.542969 168.148438 83.976562 C 168.234375 84.414062 168.269531 84.851562 168.257812 85.296875 C 168.242188 85.738281 168.175781 86.175781 168.0625 86.605469 C 167.949219 87.03125 167.785156 87.441406 167.578125 87.835938 C 167.367188 88.226562 167.117188 88.589844 166.824219 88.921875 C 166.53125 89.257812 166.203125 89.554688 165.84375 89.8125 C 165.480469 90.070312 165.097656 90.285156 164.6875 90.453125 C 164.277344 90.625 163.851562 90.746094 163.414062 90.816406 C 162.976562 90.890625 162.535156 90.910156 162.09375 90.882812 C 161.648438 90.851562 161.214844 90.773438 160.792969 90.644531 C 160.367188 90.515625 159.960938 90.339844 159.578125 90.121094 C 159.191406 89.898438 158.839844 89.636719 158.515625 89.332031 C 158.191406 89.027344 157.90625 88.691406 157.660156 88.324219 C 157.410156 87.953125 157.210938 87.5625 157.054688 87.144531 C 156.898438 86.730469 156.789062 86.300781 156.730469 85.863281 C 156.675781 85.421875 156.667969 84.980469 156.710938 84.539062 C 156.753906 84.097656 156.847656 83.667969 156.988281 83.246094 C 157.132812 82.824219 157.320312 82.425781 157.554688 82.050781 C 157.789062 81.671875 158.0625 81.328125 158.378906 81.011719 C 158.921875 80.46875 159.546875 80.050781 160.253906 79.757812 C 160.964844 79.464844 161.703125 79.316406 162.472656 79.316406 Z M 202.328125 86.582031 C 202.300781 86.449219 202.324219 86.328125 202.394531 86.214844 C 202.46875 86.101562 202.574219 86.03125 202.707031 86.003906 C 202.835938 85.972656 202.960938 85.996094 203.074219 86.070312 C 203.1875 86.144531 203.253906 86.25 203.28125 86.382812 L 205.199219 95.5 C 205.226562 95.632812 205.203125 95.757812 205.128906 95.871094 C 205.058594 95.984375 204.953125 96.054688 204.820312 96.082031 C 204.691406 96.109375 204.566406 96.085938 204.453125 96.011719 C 204.339844 95.9375 204.273438 95.835938 204.246094 95.703125 Z M 205.242188 100.453125 C 205.214844 100.324219 205.238281 100.199219 205.3125 100.089844 C 205.386719 99.976562 205.488281 99.90625 205.621094 99.878906 C 205.753906 99.851562 205.875 99.875 205.988281 99.949219 C 206.101562 100.023438 206.171875 100.125 206.199219 100.257812 L 207.496094 106.425781 C 207.523438 106.558594 207.5 106.679688 207.429688 106.792969 C 207.355469 106.90625 207.25 106.976562 207.117188 107.003906 C 206.984375 107.03125 206.863281 107.007812 206.75 106.933594 C 206.636719 106.859375 206.566406 106.757812 206.539062 106.625 Z M 190.039062 111.410156 C 189.9375 111.496094 189.816406 111.535156 189.679688 111.523438 C 189.546875 111.511719 189.433594 111.457031 189.347656 111.351562 C 189.261719 111.25 189.222656 111.128906 189.234375 110.996094 C 189.246094 110.859375 189.304688 110.75 189.410156 110.664062 L 190.367188 109.859375 C 190.46875 109.773438 190.589844 109.734375 190.722656 109.746094 C 190.855469 109.757812 190.96875 109.816406 191.054688 109.917969 C 191.140625 110.023438 191.179688 110.140625 191.167969 110.277344 C 191.15625 110.410156 191.097656 110.519531 190.996094 110.605469 Z M 202.28125 101.097656 C 202.179688 101.183594 202.058594 101.21875 201.925781 101.207031 C 201.789062 101.195312 201.679688 101.136719 201.59375 101.035156 C 201.507812 100.933594 201.46875 100.816406 201.480469 100.679688 C 201.492188 100.546875 201.550781 100.4375 201.652344 100.351562 L 206.480469 96.28125 C 206.585938 96.199219 206.703125 96.160156 206.835938 96.175781 C 206.96875 96.1875 207.078125 96.242188 207.164062 96.347656 C 207.25 96.449219 207.289062 96.566406 207.277344 96.699219 C 207.265625 96.832031 207.210938 96.941406 207.109375 97.03125 Z M 171.921875 105.828125 C 171.820312 105.917969 171.699219 105.957031 171.566406 105.945312 C 171.429688 105.9375 171.320312 105.882812 171.230469 105.78125 C 171.144531 105.679688 171.101562 105.558594 171.109375 105.425781 C 171.121094 105.292969 171.175781 105.179688 171.273438 105.089844 L 175.582031 101.339844 C 175.683594 101.253906 175.804688 101.214844 175.9375 101.226562 C 176.070312 101.238281 176.179688 101.292969 176.269531 101.394531 C 176.359375 101.492188 176.398438 101.613281 176.390625 101.746094 C 176.382812 101.878906 176.328125 101.992188 176.230469 102.082031 Z M 187.320312 92.4375 C 187.214844 92.53125 187.097656 92.574219 186.960938 92.5625 C 186.820312 92.554688 186.707031 92.5 186.617188 92.394531 C 186.527344 92.292969 186.488281 92.171875 186.5 92.035156 C 186.511719 91.898438 186.570312 91.785156 186.675781 91.695312 L 195.898438 83.671875 C 196 83.578125 196.121094 83.535156 196.257812 83.542969 C 196.394531 83.550781 196.511719 83.605469 196.601562 83.710938 C 196.691406 83.816406 196.730469 83.9375 196.71875 84.074219 C 196.707031 84.210938 196.648438 84.324219 196.542969 84.410156 Z M 169.027344 89.472656 C 168.914062 89.402344 168.839844 89.300781 168.8125 89.167969 C 168.78125 89.035156 168.800781 88.914062 168.875 88.800781 C 168.945312 88.683594 169.046875 88.613281 169.179688 88.582031 C 169.3125 88.554688 169.433594 88.574219 169.546875 88.644531 L 175.429688 92.347656 C 175.542969 92.417969 175.617188 92.519531 175.644531 92.652344 C 175.675781 92.785156 175.65625 92.90625 175.582031 93.019531 C 175.511719 93.132812 175.410156 93.207031 175.277344 93.238281 C 175.144531 93.265625 175.023438 93.246094 174.910156 93.171875 Z M 187.484375 101.085938 C 187.371094 101.015625 187.296875 100.914062 187.265625 100.78125 C 187.238281 100.648438 187.257812 100.527344 187.332031 100.414062 C 187.402344 100.300781 187.507812 100.226562 187.636719 100.199219 C 187.769531 100.167969 187.890625 100.1875 188.003906 100.261719 L 189.984375 101.507812 C 190.101562 101.578125 190.175781 101.679688 190.207031 101.8125 C 190.238281 101.945312 190.21875 102.070312 190.144531 102.1875 C 190.074219 102.300781 189.96875 102.375 189.835938 102.402344 C 189.703125 102.433594 189.578125 102.410156 189.464844 102.335938 Z M 201.464844 109.882812 C 201.351562 109.8125 201.28125 109.710938 201.25 109.578125 C 201.21875 109.445312 201.242188 109.324219 201.3125 109.210938 C 201.382812 109.097656 201.488281 109.023438 201.617188 108.992188 C 201.75 108.964844 201.871094 108.984375 201.988281 109.058594 L 203.492188 110 C 203.601562 110.074219 203.671875 110.175781 203.703125 110.308594 C 203.730469 110.4375 203.710938 110.558594 203.636719 110.671875 C 203.566406 110.785156 203.464844 110.859375 203.335938 110.890625 C 203.207031 110.921875 203.085938 110.902344 202.96875 110.832031 Z M 165.769531 91.839844 C 165.691406 91.730469 165.660156 91.609375 165.679688 91.476562 C 165.695312 91.34375 165.761719 91.234375 165.867188 91.15625 C 165.976562 91.074219 166.097656 91.042969 166.230469 91.0625 C 166.363281 91.082031 166.472656 91.144531 166.554688 91.25 L 173.457031 100.421875 C 173.535156 100.53125 173.5625 100.652344 173.542969 100.785156 C 173.523438 100.914062 173.460938 101.023438 173.355469 101.101562 C 173.246094 101.183594 173.128906 101.214844 172.996094 101.195312 C 172.863281 101.179688 172.757812 101.117188 172.675781 101.011719 Z M 175.734375 105.074219 C 175.65625 104.96875 175.628906 104.847656 175.648438 104.71875 C 175.667969 104.585938 175.730469 104.480469 175.835938 104.398438 C 175.945312 104.320312 176.0625 104.289062 176.195312 104.308594 C 176.324219 104.324219 176.433594 104.386719 176.515625 104.492188 L 179.957031 109.0625 C 180.035156 109.171875 180.066406 109.292969 180.042969 109.421875 C 180.023438 109.554688 179.960938 109.660156 179.855469 109.742188 C 179.75 109.820312 179.628906 109.851562 179.496094 109.835938 C 179.363281 109.816406 179.257812 109.757812 179.175781 109.652344 Z M 201.800781 75.992188 C 202.109375 75.992188 202.410156 76.054688 202.695312 76.171875 C 202.980469 76.289062 203.234375 76.460938 203.453125 76.679688 C 203.675781 76.898438 203.84375 77.152344 203.960938 77.441406 C 204.082031 77.726562 204.140625 78.027344 204.140625 78.335938 C 204.140625 78.648438 204.082031 78.945312 203.960938 79.234375 C 203.84375 79.519531 203.675781 79.773438 203.453125 79.992188 C 203.234375 80.210938 202.980469 80.382812 202.695312 80.5 C 202.410156 80.621094 202.109375 80.679688 201.800781 80.679688 C 202.496094 80.679688 203.144531 80.847656 203.753906 81.1875 C 204.359375 81.527344 204.847656 81.992188 205.210938 82.582031 C 205.433594 82.359375 205.632812 82.117188 205.804688 81.855469 C 205.980469 81.589844 206.125 81.3125 206.246094 81.023438 C 206.367188 80.730469 206.457031 80.429688 206.515625 80.121094 C 206.578125 79.8125 206.609375 79.5 206.605469 79.183594 C 206.605469 78.867188 206.574219 78.558594 206.511719 78.246094 C 206.449219 77.9375 206.359375 77.636719 206.238281 77.347656 C 206.117188 77.054688 205.96875 76.78125 205.792969 76.519531 C 205.617188 76.257812 205.417969 76.015625 205.195312 75.792969 C 204.972656 75.570312 204.730469 75.371094 204.464844 75.195312 C 204.203125 75.019531 203.925781 74.871094 203.636719 74.75 C 203.34375 74.632812 203.042969 74.539062 202.734375 74.480469 C 202.425781 74.417969 202.113281 74.386719 201.800781 74.386719 C 201.484375 74.386719 201.171875 74.417969 200.863281 74.480469 C 200.554688 74.539062 200.253906 74.632812 199.960938 74.75 C 199.671875 74.871094 199.394531 75.019531 199.132812 75.195312 C 198.867188 75.371094 198.625 75.570312 198.402344 75.792969 C 198.179688 76.015625 197.980469 76.257812 197.804688 76.519531 C 197.628906 76.78125 197.480469 77.054688 197.359375 77.347656 C 197.238281 77.636719 197.148438 77.9375 197.085938 78.246094 C 197.023438 78.558594 196.992188 78.867188 196.992188 79.183594 C 196.988281 79.5 197.019531 79.8125 197.082031 80.121094 C 197.140625 80.429688 197.230469 80.730469 197.351562 81.023438 C 197.472656 81.3125 197.617188 81.589844 197.792969 81.855469 C 197.96875 82.117188 198.164062 82.359375 198.386719 82.582031 C 198.75 81.992188 199.238281 81.527344 199.84375 81.1875 C 200.453125 80.847656 201.105469 80.679688 201.800781 80.679688 C 201.488281 80.679688 201.191406 80.621094 200.902344 80.5 C 200.617188 80.382812 200.363281 80.210938 200.144531 79.992188 C 199.921875 79.773438 199.753906 79.519531 199.636719 79.234375 C 199.515625 78.945312 199.457031 78.648438 199.457031 78.335938 C 199.457031 78.027344 199.515625 77.726562 199.636719 77.441406 C 199.753906 77.152344 199.921875 76.898438 200.144531 76.679688 C 200.363281 76.460938 200.617188 76.289062 200.902344 76.171875 C 201.191406 76.050781 201.488281 75.992188 201.800781 75.992188 Z M 201.800781 73.40625 C 202.242188 73.40625 202.679688 73.457031 203.113281 73.554688 C 203.546875 73.65625 203.960938 73.804688 204.359375 74 C 204.757812 74.199219 205.128906 74.4375 205.472656 74.71875 C 205.8125 75 206.121094 75.316406 206.390625 75.667969 C 206.660156 76.019531 206.886719 76.398438 207.070312 76.804688 C 207.253906 77.207031 207.390625 77.628906 207.476562 78.0625 C 207.5625 78.5 207.597656 78.9375 207.585938 79.382812 C 207.570312 79.824219 207.503906 80.261719 207.390625 80.691406 C 207.277344 81.121094 207.113281 81.53125 206.90625 81.921875 C 206.695312 82.3125 206.445312 82.675781 206.152344 83.011719 C 205.859375 83.34375 205.53125 83.640625 205.171875 83.898438 C 204.808594 84.15625 204.425781 84.371094 204.015625 84.542969 C 203.605469 84.710938 203.179688 84.832031 202.742188 84.90625 C 202.304688 84.976562 201.863281 85 201.421875 84.96875 C 200.976562 84.941406 200.542969 84.863281 200.121094 84.734375 C 199.695312 84.605469 199.289062 84.429688 198.90625 84.207031 C 198.519531 83.984375 198.167969 83.722656 197.84375 83.417969 C 197.519531 83.113281 197.234375 82.777344 196.988281 82.410156 C 196.738281 82.039062 196.539062 81.648438 196.382812 81.234375 C 196.226562 80.816406 196.117188 80.390625 196.058594 79.949219 C 196.003906 79.507812 195.996094 79.066406 196.039062 78.625 C 196.082031 78.183594 196.175781 77.753906 196.316406 77.332031 C 196.460938 76.914062 196.648438 76.511719 196.882812 76.136719 C 197.117188 75.757812 197.390625 75.414062 197.707031 75.101562 C 198.25 74.554688 198.875 74.136719 199.582031 73.84375 C 200.292969 73.550781 201.03125 73.402344 201.800781 73.40625 Z M 212.667969 89.671875 C 212.976562 89.671875 213.273438 89.734375 213.558594 89.855469 C 213.84375 89.972656 214.09375 90.144531 214.3125 90.363281 C 214.527344 90.582031 214.695312 90.835938 214.8125 91.121094 C 214.933594 91.40625 214.992188 91.703125 214.992188 92.011719 C 214.992188 92.320312 214.933594 92.621094 214.8125 92.90625 C 214.695312 93.191406 214.527344 93.441406 214.3125 93.664062 C 214.09375 93.882812 213.84375 94.050781 213.558594 94.171875 C 213.273438 94.292969 212.976562 94.351562 212.667969 94.355469 C 213.359375 94.355469 214.011719 94.523438 214.617188 94.863281 C 215.226562 95.199219 215.710938 95.667969 216.074219 96.257812 C 216.296875 96.035156 216.496094 95.792969 216.671875 95.527344 C 216.84375 95.265625 216.992188 94.988281 217.113281 94.695312 C 217.234375 94.40625 217.324219 94.105469 217.382812 93.796875 C 217.445312 93.484375 217.476562 93.171875 217.476562 92.859375 C 217.472656 92.542969 217.441406 92.230469 217.378906 91.921875 C 217.320312 91.609375 217.226562 91.3125 217.105469 91.019531 C 216.984375 90.726562 216.835938 90.453125 216.660156 90.1875 C 216.484375 89.925781 216.285156 89.683594 216.0625 89.460938 C 215.839844 89.238281 215.597656 89.039062 215.335938 88.863281 C 215.070312 88.6875 214.792969 88.542969 214.503906 88.421875 C 214.210938 88.300781 213.910156 88.210938 213.601562 88.148438 C 213.292969 88.085938 212.980469 88.054688 212.664062 88.054688 C 212.347656 88.054688 212.035156 88.085938 211.726562 88.148438 C 211.417969 88.210938 211.117188 88.300781 210.824219 88.421875 C 210.535156 88.542969 210.257812 88.6875 209.996094 88.863281 C 209.730469 89.039062 209.488281 89.238281 209.265625 89.460938 C 209.042969 89.683594 208.84375 89.925781 208.667969 90.1875 C 208.492188 90.453125 208.34375 90.726562 208.222656 91.019531 C 208.101562 91.3125 208.011719 91.609375 207.949219 91.921875 C 207.886719 92.230469 207.855469 92.542969 207.855469 92.859375 C 207.855469 93.171875 207.882812 93.484375 207.945312 93.796875 C 208.007812 94.105469 208.097656 94.40625 208.214844 94.695312 C 208.335938 94.988281 208.484375 95.265625 208.660156 95.527344 C 208.832031 95.792969 209.03125 96.035156 209.253906 96.257812 C 209.621094 95.667969 210.105469 95.199219 210.710938 94.863281 C 211.320312 94.523438 211.972656 94.355469 212.667969 94.355469 C 212.355469 94.355469 212.054688 94.300781 211.765625 94.179688 C 211.476562 94.0625 211.222656 93.894531 211 93.675781 C 210.777344 93.453125 210.609375 93.199219 210.488281 92.914062 C 210.367188 92.625 210.308594 92.324219 210.308594 92.011719 C 210.308594 91.699219 210.367188 91.402344 210.488281 91.113281 C 210.609375 90.824219 210.777344 90.570312 211 90.351562 C 211.222656 90.132812 211.476562 89.960938 211.765625 89.84375 C 212.054688 89.726562 212.355469 89.667969 212.667969 89.671875 Z M 212.667969 87.078125 C 213.109375 87.078125 213.546875 87.128906 213.980469 87.230469 C 214.414062 87.332031 214.828125 87.480469 215.226562 87.675781 C 215.625 87.875 215.996094 88.113281 216.335938 88.394531 C 216.679688 88.675781 216.988281 88.992188 217.257812 89.347656 C 217.527344 89.699219 217.753906 90.078125 217.9375 90.480469 C 218.121094 90.886719 218.253906 91.304688 218.339844 91.742188 C 218.425781 92.175781 218.464844 92.617188 218.449219 93.058594 C 218.433594 93.503906 218.367188 93.9375 218.253906 94.367188 C 218.140625 94.796875 217.976562 95.207031 217.765625 95.597656 C 217.558594 95.988281 217.308594 96.351562 217.015625 96.6875 C 216.722656 97.019531 216.394531 97.316406 216.035156 97.574219 C 215.671875 97.832031 215.285156 98.046875 214.875 98.214844 C 214.464844 98.386719 214.042969 98.507812 213.605469 98.578125 C 213.167969 98.652344 212.726562 98.671875 212.285156 98.644531 C 211.839844 98.613281 211.40625 98.535156 210.980469 98.40625 C 210.558594 98.277344 210.152344 98.101562 209.769531 97.878906 C 209.382812 97.660156 209.03125 97.394531 208.707031 97.09375 C 208.382812 96.789062 208.097656 96.453125 207.851562 96.082031 C 207.601562 95.714844 207.402344 95.320312 207.246094 94.90625 C 207.089844 94.492188 206.980469 94.0625 206.925781 93.621094 C 206.867188 93.183594 206.859375 92.742188 206.902344 92.300781 C 206.945312 91.859375 207.039062 91.425781 207.183594 91.007812 C 207.324219 90.585938 207.511719 90.1875 207.746094 89.8125 C 207.980469 89.433594 208.257812 89.089844 208.570312 88.773438 C 209.113281 88.230469 209.738281 87.8125 210.449219 87.519531 C 211.160156 87.226562 211.898438 87.078125 212.667969 87.078125 Z M 209.679688 111.0625 C 209.988281 111.0625 210.289062 111.121094 210.574219 111.238281 C 210.863281 111.359375 211.117188 111.527344 211.335938 111.75 C 211.554688 111.96875 211.726562 112.222656 211.84375 112.507812 C 211.960938 112.796875 212.023438 113.09375 212.023438 113.40625 C 212.023438 113.714844 211.960938 114.015625 211.84375 114.300781 C 211.726562 114.589844 211.554688 114.84375 211.335938 115.0625 C 211.117188 115.28125 210.863281 115.453125 210.574219 115.570312 C 210.289062 115.6875 209.988281 115.75 209.679688 115.75 C 210.375 115.75 211.027344 115.917969 211.632812 116.257812 C 212.238281 116.59375 212.726562 117.058594 213.089844 117.652344 C 213.3125 117.429688 213.511719 117.183594 213.683594 116.921875 C 213.859375 116.660156 214.007812 116.382812 214.125 116.089844 C 214.246094 115.800781 214.335938 115.5 214.398438 115.191406 C 214.457031 114.878906 214.488281 114.570312 214.488281 114.253906 C 214.484375 113.9375 214.453125 113.625 214.394531 113.316406 C 214.332031 113.007812 214.238281 112.707031 214.117188 112.417969 C 213.996094 112.125 213.847656 111.847656 213.671875 111.585938 C 213.496094 111.324219 213.296875 111.082031 213.074219 110.859375 C 212.851562 110.636719 212.609375 110.4375 212.347656 110.265625 C 212.085938 110.089844 211.808594 109.941406 211.515625 109.820312 C 211.226562 109.699219 210.925781 109.609375 210.617188 109.546875 C 210.304688 109.488281 209.992188 109.457031 209.679688 109.457031 C 209.363281 109.457031 209.050781 109.488281 208.742188 109.546875 C 208.433594 109.609375 208.132812 109.699219 207.839844 109.820312 C 207.550781 109.941406 207.273438 110.089844 207.011719 110.265625 C 206.75 110.4375 206.507812 110.636719 206.28125 110.859375 C 206.058594 111.082031 205.859375 111.324219 205.683594 111.585938 C 205.507812 111.847656 205.359375 112.125 205.238281 112.417969 C 205.117188 112.707031 205.027344 113.007812 204.964844 113.316406 C 204.902344 113.625 204.871094 113.9375 204.871094 114.253906 C 204.871094 114.570312 204.898438 114.878906 204.960938 115.191406 C 205.019531 115.5 205.113281 115.800781 205.230469 116.089844 C 205.351562 116.382812 205.5 116.660156 205.671875 116.921875 C 205.847656 117.183594 206.046875 117.429688 206.265625 117.652344 C 206.632812 117.058594 207.117188 116.59375 207.726562 116.257812 C 208.332031 115.917969 208.984375 115.75 209.679688 115.75 C 209.367188 115.75 209.070312 115.6875 208.78125 115.570312 C 208.496094 115.449219 208.242188 115.28125 208.023438 115.0625 C 207.804688 114.839844 207.636719 114.589844 207.515625 114.300781 C 207.398438 114.015625 207.339844 113.714844 207.339844 113.40625 C 207.339844 113.09375 207.398438 112.796875 207.515625 112.507812 C 207.636719 112.222656 207.804688 111.96875 208.023438 111.75 C 208.242188 111.53125 208.496094 111.359375 208.78125 111.242188 C 209.070312 111.121094 209.367188 111.0625 209.679688 111.0625 Z M 209.679688 108.472656 C 210.121094 108.472656 210.5625 108.523438 210.992188 108.625 C 211.425781 108.726562 211.839844 108.875 212.238281 109.070312 C 212.636719 109.265625 213.007812 109.503906 213.351562 109.789062 C 213.695312 110.070312 214 110.386719 214.269531 110.738281 C 214.542969 111.089844 214.769531 111.46875 214.953125 111.871094 C 215.136719 112.277344 215.269531 112.695312 215.355469 113.132812 C 215.441406 113.566406 215.480469 114.007812 215.464844 114.449219 C 215.449219 114.894531 215.386719 115.332031 215.269531 115.761719 C 215.15625 116.1875 214.992188 116.597656 214.785156 116.992188 C 214.574219 117.382812 214.324219 117.746094 214.03125 118.078125 C 213.738281 118.414062 213.410156 118.707031 213.050781 118.96875 C 212.691406 119.226562 212.304688 119.441406 211.894531 119.609375 C 211.484375 119.78125 211.058594 119.902344 210.621094 119.972656 C 210.183594 120.046875 209.742188 120.066406 209.300781 120.039062 C 208.859375 120.007812 208.425781 119.929688 208 119.800781 C 207.574219 119.671875 207.167969 119.496094 206.785156 119.273438 C 206.402344 119.054688 206.046875 118.789062 205.722656 118.488281 C 205.398438 118.183594 205.113281 117.847656 204.867188 117.476562 C 204.621094 117.109375 204.417969 116.714844 204.261719 116.300781 C 204.105469 115.886719 204 115.457031 203.941406 115.019531 C 203.882812 114.578125 203.875 114.136719 203.917969 113.695312 C 203.960938 113.253906 204.054688 112.820312 204.199219 112.402344 C 204.339844 111.980469 204.527344 111.582031 204.761719 111.207031 C 205 110.828125 205.273438 110.484375 205.585938 110.167969 C 206.128906 109.625 206.753906 109.207031 207.464844 108.914062 C 208.171875 108.617188 208.910156 108.472656 209.679688 108.472656 Z M 195.898438 102.316406 C 196.207031 102.316406 196.507812 102.371094 196.796875 102.492188 C 197.085938 102.609375 197.34375 102.777344 197.5625 102.996094 C 197.785156 103.21875 197.957031 103.472656 198.074219 103.757812 C 198.195312 104.046875 198.253906 104.347656 198.253906 104.660156 C 198.253906 104.972656 198.195312 105.269531 198.074219 105.558594 C 197.957031 105.847656 197.785156 106.101562 197.5625 106.320312 C 197.34375 106.539062 197.085938 106.710938 196.796875 106.828125 C 196.507812 106.945312 196.207031 107.003906 195.898438 107 C 196.59375 107 197.242188 107.167969 197.851562 107.507812 C 198.457031 107.847656 198.945312 108.3125 199.308594 108.90625 C 199.53125 108.679688 199.730469 108.4375 199.902344 108.175781 C 200.078125 107.910156 200.226562 107.636719 200.347656 107.34375 C 200.464844 107.050781 200.558594 106.75 200.617188 106.441406 C 200.679688 106.132812 200.707031 105.820312 200.707031 105.503906 C 200.707031 105.1875 200.675781 104.875 200.613281 104.566406 C 200.550781 104.257812 200.460938 103.957031 200.339844 103.664062 C 200.21875 103.375 200.070312 103.097656 199.894531 102.835938 C 199.71875 102.574219 199.519531 102.332031 199.296875 102.109375 C 199.074219 101.886719 198.832031 101.6875 198.566406 101.511719 C 198.304688 101.335938 198.027344 101.1875 197.738281 101.066406 C 197.445312 100.945312 197.144531 100.855469 196.835938 100.792969 C 196.527344 100.734375 196.214844 100.703125 195.898438 100.703125 C 195.582031 100.703125 195.269531 100.734375 194.960938 100.792969 C 194.652344 100.855469 194.351562 100.945312 194.058594 101.066406 C 193.769531 101.1875 193.492188 101.335938 193.230469 101.511719 C 192.964844 101.6875 192.722656 101.886719 192.5 102.109375 C 192.277344 102.332031 192.078125 102.574219 191.902344 102.835938 C 191.726562 103.097656 191.578125 103.375 191.457031 103.664062 C 191.335938 103.957031 191.242188 104.257812 191.183594 104.566406 C 191.121094 104.875 191.089844 105.1875 191.089844 105.503906 C 191.085938 105.820312 191.117188 106.132812 191.179688 106.441406 C 191.238281 106.75 191.332031 107.050781 191.449219 107.34375 C 191.570312 107.636719 191.71875 107.910156 191.894531 108.175781 C 192.066406 108.4375 192.265625 108.679688 192.488281 108.90625 C 192.851562 108.3125 193.335938 107.847656 193.945312 107.507812 C 194.550781 107.167969 195.203125 107 195.898438 107 C 195.585938 107.003906 195.285156 106.945312 194.996094 106.828125 C 194.707031 106.710938 194.453125 106.539062 194.230469 106.320312 C 194.007812 106.101562 193.835938 105.847656 193.71875 105.558594 C 193.597656 105.269531 193.539062 104.972656 193.539062 104.660156 C 193.539062 104.347656 193.597656 104.046875 193.71875 103.757812 C 193.835938 103.472656 194.007812 103.21875 194.230469 102.996094 C 194.453125 102.777344 194.707031 102.609375 194.996094 102.492188 C 195.285156 102.371094 195.585938 102.316406 195.898438 102.316406 Z M 195.898438 99.726562 C 196.339844 99.726562 196.777344 99.777344 197.210938 99.875 C 197.644531 99.976562 198.058594 100.125 198.457031 100.324219 C 198.855469 100.519531 199.226562 100.757812 199.570312 101.039062 C 199.910156 101.320312 200.21875 101.636719 200.488281 101.988281 C 200.757812 102.34375 200.984375 102.71875 201.167969 103.125 C 201.351562 103.527344 201.488281 103.949219 201.574219 104.382812 C 201.660156 104.820312 201.695312 105.257812 201.683594 105.703125 C 201.667969 106.148438 201.601562 106.582031 201.488281 107.011719 C 201.375 107.441406 201.210938 107.851562 201.003906 108.242188 C 200.792969 108.632812 200.542969 108.996094 200.25 109.332031 C 199.957031 109.664062 199.628906 109.960938 199.269531 110.21875 C 198.90625 110.476562 198.523438 110.691406 198.113281 110.863281 C 197.703125 111.03125 197.277344 111.152344 196.839844 111.226562 C 196.402344 111.296875 195.960938 111.320312 195.519531 111.289062 C 195.074219 111.261719 194.640625 111.183594 194.21875 111.054688 C 193.792969 110.925781 193.386719 110.75 193.003906 110.527344 C 192.617188 110.304688 192.265625 110.042969 191.941406 109.738281 C 191.617188 109.4375 191.332031 109.097656 191.085938 108.730469 C 190.835938 108.359375 190.636719 107.96875 190.480469 107.554688 C 190.324219 107.136719 190.214844 106.710938 190.15625 106.269531 C 190.101562 105.828125 190.09375 105.390625 190.136719 104.945312 C 190.179688 104.503906 190.273438 104.074219 190.414062 103.652344 C 190.558594 103.234375 190.746094 102.835938 190.980469 102.457031 C 191.214844 102.082031 191.488281 101.734375 191.804688 101.421875 C 192.347656 100.878906 192.972656 100.460938 193.679688 100.167969 C 194.390625 99.871094 195.128906 99.726562 195.894531 99.726562 Z M 184.28125 112.429688 C 184.589844 112.433594 184.886719 112.492188 185.171875 112.613281 C 185.457031 112.734375 185.710938 112.902344 185.929688 113.121094 C 186.144531 113.34375 186.3125 113.59375 186.433594 113.882812 C 186.550781 114.167969 186.609375 114.464844 186.609375 114.773438 C 186.609375 115.082031 186.550781 115.382812 186.433594 115.667969 C 186.3125 115.953125 186.144531 116.207031 185.929688 116.425781 C 185.710938 116.644531 185.457031 116.8125 185.171875 116.933594 C 184.886719 117.054688 184.589844 117.113281 184.28125 117.117188 C 184.976562 117.117188 185.628906 117.285156 186.234375 117.625 C 186.84375 117.964844 187.328125 118.429688 187.695312 119.019531 C 187.914062 118.796875 188.113281 118.554688 188.289062 118.292969 C 188.460938 118.027344 188.609375 117.75 188.730469 117.460938 C 188.847656 117.167969 188.941406 116.867188 189 116.558594 C 189.0625 116.25 189.089844 115.9375 189.089844 115.621094 C 189.089844 115.304688 189.058594 114.996094 188.996094 114.683594 C 188.933594 114.375 188.84375 114.078125 188.722656 113.785156 C 188.601562 113.492188 188.453125 113.21875 188.277344 112.957031 C 188.101562 112.695312 187.902344 112.453125 187.679688 112.230469 C 187.453125 112.007812 187.210938 111.808594 186.949219 111.632812 C 186.6875 111.457031 186.410156 111.308594 186.121094 111.1875 C 185.828125 111.070312 185.527344 110.976562 185.21875 110.917969 C 184.910156 110.855469 184.597656 110.824219 184.28125 110.824219 C 183.964844 110.824219 183.65625 110.855469 183.34375 110.917969 C 183.035156 110.976562 182.734375 111.070312 182.445312 111.1875 C 182.152344 111.308594 181.875 111.457031 181.613281 111.632812 C 181.351562 111.808594 181.109375 112.007812 180.886719 112.230469 C 180.664062 112.453125 180.464844 112.695312 180.289062 112.957031 C 180.113281 113.21875 179.964844 113.492188 179.84375 113.785156 C 179.722656 114.078125 179.628906 114.375 179.566406 114.683594 C 179.503906 114.996094 179.472656 115.304688 179.472656 115.621094 C 179.472656 115.9375 179.503906 116.25 179.5625 116.558594 C 179.625 116.867188 179.714844 117.167969 179.835938 117.460938 C 179.953125 117.75 180.101562 118.027344 180.277344 118.292969 C 180.449219 118.554688 180.648438 118.796875 180.871094 119.019531 C 181.234375 118.429688 181.722656 117.964844 182.328125 117.625 C 182.933594 117.285156 183.585938 117.117188 184.28125 117.117188 C 183.972656 117.113281 183.675781 117.054688 183.390625 116.933594 C 183.105469 116.8125 182.855469 116.644531 182.636719 116.425781 C 182.417969 116.207031 182.25 115.953125 182.132812 115.667969 C 182.015625 115.382812 181.957031 115.082031 181.957031 114.773438 C 181.957031 114.464844 182.015625 114.167969 182.132812 113.882812 C 182.25 113.59375 182.417969 113.34375 182.636719 113.121094 C 182.855469 112.902344 183.105469 112.734375 183.390625 112.613281 C 183.675781 112.492188 183.972656 112.433594 184.28125 112.429688 Z M 184.28125 109.84375 C 184.726562 109.84375 185.164062 109.894531 185.597656 109.992188 C 186.027344 110.09375 186.445312 110.242188 186.84375 110.4375 C 187.242188 110.636719 187.609375 110.875 187.953125 111.15625 C 188.296875 111.4375 188.605469 111.753906 188.875 112.105469 C 189.144531 112.460938 189.371094 112.835938 189.554688 113.242188 C 189.738281 113.644531 189.871094 114.066406 189.960938 114.5 C 190.046875 114.9375 190.082031 115.375 190.066406 115.820312 C 190.054688 116.265625 189.988281 116.699219 189.875 117.128906 C 189.757812 117.558594 189.597656 117.96875 189.386719 118.359375 C 189.179688 118.75 188.925781 119.113281 188.632812 119.449219 C 188.34375 119.78125 188.015625 120.078125 187.652344 120.335938 C 187.292969 120.59375 186.90625 120.808594 186.496094 120.980469 C 186.085938 121.148438 185.664062 121.269531 185.226562 121.34375 C 184.789062 121.414062 184.347656 121.4375 183.902344 121.40625 C 183.460938 121.378906 183.027344 121.300781 182.601562 121.171875 C 182.175781 121.042969 181.773438 120.867188 181.386719 120.644531 C 181.003906 120.421875 180.648438 120.160156 180.324219 119.855469 C 180 119.550781 179.714844 119.214844 179.46875 118.847656 C 179.222656 118.476562 179.019531 118.085938 178.863281 117.671875 C 178.707031 117.253906 178.601562 116.828125 178.542969 116.386719 C 178.484375 115.945312 178.476562 115.503906 178.523438 115.0625 C 178.566406 114.621094 178.660156 114.191406 178.800781 113.769531 C 178.945312 113.351562 179.132812 112.953125 179.367188 112.574219 C 179.601562 112.195312 179.875 111.851562 180.1875 111.539062 C 180.730469 110.996094 181.355469 110.574219 182.066406 110.28125 C 182.777344 109.988281 183.515625 109.839844 184.28125 109.84375 Z M 181.472656 93.699219 C 181.785156 93.695312 182.082031 93.753906 182.371094 93.871094 C 182.660156 93.988281 182.917969 94.15625 183.136719 94.378906 C 183.359375 94.597656 183.53125 94.851562 183.648438 95.140625 C 183.769531 95.425781 183.828125 95.726562 183.828125 96.039062 C 183.828125 96.351562 183.769531 96.652344 183.648438 96.9375 C 183.53125 97.226562 183.359375 97.480469 183.136719 97.699219 C 182.917969 97.921875 182.660156 98.089844 182.371094 98.207031 C 182.082031 98.324219 181.785156 98.382812 181.472656 98.382812 C 182.167969 98.382812 182.816406 98.550781 183.425781 98.890625 C 184.03125 99.230469 184.519531 99.695312 184.882812 100.289062 C 185.105469 100.066406 185.304688 99.820312 185.480469 99.558594 C 185.652344 99.296875 185.800781 99.019531 185.921875 98.726562 C 186.039062 98.433594 186.132812 98.132812 186.191406 97.824219 C 186.253906 97.515625 186.285156 97.203125 186.28125 96.886719 C 186.28125 96.570312 186.25 96.261719 186.1875 95.949219 C 186.128906 95.640625 186.035156 95.339844 185.914062 95.050781 C 185.792969 94.757812 185.644531 94.480469 185.46875 94.21875 C 185.292969 93.957031 185.09375 93.714844 184.871094 93.492188 C 184.648438 93.269531 184.40625 93.070312 184.144531 92.894531 C 183.878906 92.71875 183.601562 92.570312 183.3125 92.453125 C 183.019531 92.332031 182.71875 92.238281 182.410156 92.179688 C 182.101562 92.117188 181.789062 92.085938 181.472656 92.085938 C 181.15625 92.085938 180.84375 92.117188 180.535156 92.179688 C 180.226562 92.238281 179.925781 92.332031 179.632812 92.453125 C 179.34375 92.570312 179.066406 92.71875 178.804688 92.894531 C 178.539062 93.070312 178.296875 93.269531 178.074219 93.492188 C 177.851562 93.714844 177.652344 93.957031 177.476562 94.21875 C 177.300781 94.480469 177.152344 94.757812 177.03125 95.050781 C 176.910156 95.339844 176.820312 95.640625 176.757812 95.949219 C 176.695312 96.261719 176.664062 96.570312 176.664062 96.886719 C 176.664062 97.203125 176.691406 97.515625 176.753906 97.824219 C 176.816406 98.132812 176.90625 98.433594 177.023438 98.726562 C 177.144531 99.019531 177.292969 99.296875 177.46875 99.558594 C 177.640625 99.820312 177.839844 100.066406 178.0625 100.289062 C 178.425781 99.695312 178.910156 99.230469 179.519531 98.890625 C 180.125 98.550781 180.777344 98.382812 181.472656 98.382812 C 181.160156 98.382812 180.859375 98.324219 180.570312 98.207031 C 180.28125 98.089844 180.027344 97.921875 179.804688 97.703125 C 179.582031 97.480469 179.414062 97.226562 179.292969 96.941406 C 179.171875 96.652344 179.113281 96.351562 179.113281 96.039062 C 179.113281 95.726562 179.171875 95.429688 179.292969 95.140625 C 179.414062 94.851562 179.582031 94.597656 179.804688 94.378906 C 180.027344 94.160156 180.28125 93.988281 180.570312 93.871094 C 180.859375 93.753906 181.160156 93.695312 181.472656 93.699219 Z M 181.472656 91.109375 C 181.914062 91.109375 182.351562 91.160156 182.785156 91.261719 C 183.21875 91.359375 183.632812 91.507812 184.03125 91.707031 C 184.429688 91.902344 184.800781 92.140625 185.144531 92.421875 C 185.488281 92.703125 185.792969 93.019531 186.0625 93.375 C 186.335938 93.726562 186.5625 94.105469 186.746094 94.507812 C 186.925781 94.914062 187.0625 95.332031 187.148438 95.769531 C 187.234375 96.203125 187.273438 96.644531 187.257812 97.085938 C 187.242188 97.53125 187.179688 97.964844 187.0625 98.394531 C 186.949219 98.824219 186.785156 99.234375 186.578125 99.625 C 186.367188 100.019531 186.117188 100.378906 185.824219 100.714844 C 185.53125 101.046875 185.203125 101.34375 184.84375 101.601562 C 184.484375 101.863281 184.097656 102.074219 183.6875 102.246094 C 183.277344 102.414062 182.851562 102.535156 182.414062 102.609375 C 181.976562 102.679688 181.535156 102.703125 181.09375 102.675781 C 180.652344 102.644531 180.21875 102.566406 179.792969 102.4375 C 179.367188 102.308594 178.960938 102.132812 178.578125 101.910156 C 178.195312 101.6875 177.839844 101.425781 177.515625 101.121094 C 177.191406 100.820312 176.90625 100.484375 176.660156 100.113281 C 176.414062 99.746094 176.210938 99.351562 176.054688 98.9375 C 175.898438 98.523438 175.792969 98.09375 175.734375 97.652344 C 175.675781 97.214844 175.667969 96.773438 175.710938 96.332031 C 175.753906 95.890625 175.847656 95.457031 175.992188 95.039062 C 176.132812 94.617188 176.320312 94.21875 176.554688 93.839844 C 176.789062 93.464844 177.066406 93.117188 177.378906 92.804688 C 177.921875 92.261719 178.546875 91.84375 179.253906 91.546875 C 179.964844 91.253906 180.703125 91.109375 181.472656 91.109375 Z M 165.359375 106.894531 C 165.671875 106.894531 165.96875 106.953125 166.257812 107.070312 C 166.542969 107.191406 166.796875 107.359375 167.015625 107.578125 C 167.238281 107.796875 167.40625 108.050781 167.523438 108.339844 C 167.644531 108.625 167.703125 108.925781 167.703125 109.234375 C 167.703125 109.546875 167.644531 109.84375 167.523438 110.128906 C 167.40625 110.417969 167.238281 110.671875 167.015625 110.890625 C 166.796875 111.109375 166.542969 111.277344 166.257812 111.398438 C 165.96875 111.515625 165.671875 111.574219 165.359375 111.574219 C 166.058594 111.574219 166.707031 111.746094 167.316406 112.082031 C 167.921875 112.421875 168.410156 112.886719 168.773438 113.480469 C 168.996094 113.257812 169.195312 113.011719 169.367188 112.75 C 169.542969 112.488281 169.6875 112.210938 169.808594 111.917969 C 169.929688 111.628906 170.019531 111.328125 170.078125 111.015625 C 170.140625 110.707031 170.171875 110.394531 170.167969 110.082031 C 170.167969 109.765625 170.136719 109.453125 170.074219 109.144531 C 170.011719 108.835938 169.921875 108.535156 169.800781 108.242188 C 169.679688 107.953125 169.53125 107.675781 169.355469 107.414062 C 169.179688 107.152344 168.980469 106.910156 168.757812 106.6875 C 168.535156 106.464844 168.292969 106.265625 168.03125 106.089844 C 167.765625 105.917969 167.488281 105.769531 167.199219 105.648438 C 166.90625 105.527344 166.605469 105.4375 166.296875 105.375 C 165.988281 105.3125 165.675781 105.28125 165.363281 105.28125 C 165.046875 105.28125 164.734375 105.3125 164.425781 105.375 C 164.117188 105.4375 163.816406 105.527344 163.523438 105.648438 C 163.234375 105.769531 162.957031 105.917969 162.695312 106.089844 C 162.429688 106.265625 162.1875 106.464844 161.964844 106.6875 C 161.742188 106.910156 161.542969 107.152344 161.367188 107.414062 C 161.191406 107.675781 161.042969 107.953125 160.921875 108.242188 C 160.800781 108.535156 160.710938 108.835938 160.648438 109.144531 C 160.585938 109.453125 160.554688 109.765625 160.554688 110.082031 C 160.550781 110.394531 160.582031 110.707031 160.644531 111.015625 C 160.703125 111.328125 160.792969 111.628906 160.914062 111.917969 C 161.035156 112.210938 161.179688 112.488281 161.355469 112.75 C 161.527344 113.011719 161.726562 113.257812 161.949219 113.480469 C 162.3125 112.886719 162.800781 112.421875 163.40625 112.082031 C 164.015625 111.746094 164.664062 111.574219 165.359375 111.574219 C 165.050781 111.574219 164.753906 111.515625 164.464844 111.398438 C 164.179688 111.277344 163.925781 111.109375 163.707031 110.890625 C 163.484375 110.671875 163.316406 110.417969 163.199219 110.128906 C 163.078125 109.84375 163.019531 109.546875 163.019531 109.234375 C 163.019531 108.925781 163.078125 108.625 163.199219 108.339844 C 163.316406 108.050781 163.484375 107.796875 163.707031 107.578125 C 163.925781 107.359375 164.179688 107.191406 164.464844 107.070312 C 164.753906 106.953125 165.050781 106.894531 165.359375 106.894531 Z M 165.359375 104.300781 C 165.804688 104.300781 166.242188 104.351562 166.675781 104.453125 C 167.109375 104.554688 167.523438 104.703125 167.921875 104.898438 C 168.320312 105.09375 168.691406 105.332031 169.035156 105.613281 C 169.375 105.894531 169.683594 106.214844 169.953125 106.566406 C 170.222656 106.917969 170.449219 107.296875 170.632812 107.699219 C 170.816406 108.105469 170.953125 108.523438 171.039062 108.960938 C 171.125 109.394531 171.160156 109.835938 171.148438 110.277344 C 171.132812 110.722656 171.066406 111.160156 170.953125 111.585938 C 170.839844 112.015625 170.675781 112.425781 170.46875 112.816406 C 170.257812 113.210938 170.007812 113.570312 169.714844 113.90625 C 169.421875 114.238281 169.09375 114.535156 168.734375 114.792969 C 168.371094 115.054688 167.988281 115.265625 167.578125 115.4375 C 167.167969 115.605469 166.742188 115.726562 166.304688 115.800781 C 165.867188 115.871094 165.425781 115.894531 164.984375 115.867188 C 164.539062 115.835938 164.105469 115.757812 163.679688 115.628906 C 163.257812 115.5 162.851562 115.324219 162.46875 115.101562 C 162.082031 114.878906 161.730469 114.617188 161.40625 114.316406 C 161.082031 114.011719 160.796875 113.675781 160.550781 113.304688 C 160.300781 112.9375 160.101562 112.542969 159.945312 112.128906 C 159.789062 111.714844 159.679688 111.285156 159.621094 110.84375 C 159.566406 110.40625 159.558594 109.964844 159.601562 109.523438 C 159.644531 109.082031 159.738281 108.648438 159.878906 108.230469 C 160.023438 107.808594 160.210938 107.410156 160.445312 107.03125 C 160.679688 106.65625 160.953125 106.308594 161.269531 105.996094 C 161.8125 105.453125 162.4375 105.035156 163.144531 104.742188 C 163.855469 104.445312 164.59375 104.300781 165.359375 104.300781 Z M 162.472656 81.90625 C 162.78125 81.902344 163.082031 81.960938 163.371094 82.078125 C 163.660156 82.199219 163.917969 82.367188 164.140625 82.585938 C 164.359375 82.804688 164.53125 83.0625 164.652344 83.347656 C 164.769531 83.636719 164.832031 83.9375 164.832031 84.25 C 164.832031 84.5625 164.769531 84.863281 164.652344 85.148438 C 164.53125 85.4375 164.359375 85.691406 164.140625 85.914062 C 163.917969 86.132812 163.660156 86.300781 163.371094 86.417969 C 163.082031 86.539062 162.78125 86.59375 162.472656 86.59375 C 163.167969 86.59375 163.816406 86.761719 164.425781 87.101562 C 165.03125 87.4375 165.519531 87.90625 165.882812 88.496094 C 166.105469 88.273438 166.304688 88.03125 166.476562 87.765625 C 166.652344 87.503906 166.800781 87.226562 166.921875 86.9375 C 167.039062 86.644531 167.132812 86.34375 167.191406 86.035156 C 167.253906 85.722656 167.28125 85.410156 167.28125 85.097656 C 167.28125 84.78125 167.25 84.46875 167.1875 84.160156 C 167.125 83.847656 167.035156 83.550781 166.914062 83.257812 C 166.792969 82.964844 166.644531 82.691406 166.46875 82.429688 C 166.292969 82.164062 166.09375 81.921875 165.871094 81.699219 C 165.648438 81.476562 165.40625 81.277344 165.140625 81.101562 C 164.878906 80.929688 164.601562 80.78125 164.3125 80.660156 C 164.019531 80.539062 163.71875 80.449219 163.410156 80.386719 C 163.101562 80.324219 162.789062 80.292969 162.472656 80.292969 C 162.15625 80.292969 161.84375 80.324219 161.535156 80.386719 C 161.226562 80.449219 160.925781 80.539062 160.632812 80.660156 C 160.34375 80.78125 160.066406 80.929688 159.804688 81.101562 C 159.539062 81.277344 159.296875 81.476562 159.074219 81.699219 C 158.851562 81.921875 158.652344 82.164062 158.476562 82.429688 C 158.300781 82.691406 158.152344 82.964844 158.03125 83.257812 C 157.910156 83.550781 157.816406 83.847656 157.757812 84.160156 C 157.695312 84.46875 157.664062 84.78125 157.664062 85.097656 C 157.660156 85.410156 157.691406 85.722656 157.753906 86.035156 C 157.8125 86.34375 157.90625 86.644531 158.023438 86.9375 C 158.144531 87.226562 158.292969 87.503906 158.46875 87.765625 C 158.640625 88.03125 158.839844 88.273438 159.0625 88.496094 C 159.425781 87.90625 159.910156 87.4375 160.519531 87.101562 C 161.125 86.761719 161.777344 86.59375 162.472656 86.59375 C 162.160156 86.589844 161.863281 86.53125 161.578125 86.410156 C 161.292969 86.289062 161.042969 86.121094 160.824219 85.902344 C 160.605469 85.679688 160.4375 85.429688 160.320312 85.140625 C 160.203125 84.855469 160.144531 84.558594 160.144531 84.25 C 160.144531 83.941406 160.203125 83.644531 160.320312 83.355469 C 160.4375 83.070312 160.605469 82.816406 160.824219 82.597656 C 161.042969 82.378906 161.292969 82.210938 161.578125 82.089844 C 161.863281 81.96875 162.160156 81.910156 162.472656 81.90625 Z M 162.472656 81.90625 " fill-opacity="1" fill-rule="nonzero"/></g><g clip-path="url(#2330f2dc69)"><g clip-path="url(#5870eb1312)"><g transform="matrix(1, 0, 0, 1, 154, 154)"><g clip-path="url(#e6a7210957)"><g clip-path="url(#9818e75c02)"><g clip-path="url(#dd261ca043)"><path fill="url(#d83eca77aa)" d="M 0.890625 0.890625 L 0.890625 66.109375 L 66.109375 66.109375 L 66.109375 0.890625 Z M 0.890625 0.890625 " fill-rule="nonzero"/></g></g></g></g></g></g></svg>